<?xml version="1.0" standalone="no"?>
<!DOCTYPE svg PUBLIC "-//W3C//DTD SVG 1.1//EN" "http://www.w3.org/Graphics/SVG/1.1/DTD/svg11.dtd" >
<svg xmlns="http://www.w3.org/2000/svg" xmlns:xlink="http://www.w3.org/1999/xlink" version="1.1">
<metadata></metadata>
<defs>
<font id="comic_bookbold" horiz-adv-x="1650" >
<font-face units-per-em="2048" ascent="1638" descent="-410" />
<missing-glyph horiz-adv-x="1000" />
<glyph unicode="&#xd;" horiz-adv-x="0" />
<glyph horiz-adv-x="0" />
<glyph horiz-adv-x="0" />
<glyph unicode=" "  horiz-adv-x="1000" />
<glyph unicode="&#x09;" horiz-adv-x="1000" />
<glyph unicode="&#xa0;" horiz-adv-x="1000" />
<glyph unicode="!" horiz-adv-x="968" d="M-25 184q0 49 29 88l56 71l7 10q53 50 115 51q31 0 63 -6q133 -50 159 -155l1 -9q1 -10 1 -21q0 -25 -9 -57l-20 -42q-38 -55 -76 -87q-61 -46 -124 -47q-45 0 -83 18q-89 51 -113 139q-2 10 -4 19q-2 15 -2 28zM74 513q49 49 62 174q30 250 39 302q7 36 58 433 q23 63 181 63q38 0 159 -6q70 -3 118 -3q23 0 41 1h6q85 0 103 -64l1 -9q1 -9 1 -19q0 -130 -231 -444q-140 -344 -140 -398v-1q6 -6 6 -13q0 -26 -97 -26q-63 0 -167 4q-37 2 -140 6z" />
<glyph unicode="&#x22;" horiz-adv-x="982" d="M-25 1238q0 51 27 99l57 72l7 10q53 50 116 51q31 0 63 -6q132 -50 157 -153l4 -12q1 -9 1 -18q0 -27 -11 -58q-17 -52 -64 -125q-38 -93 -107 -132q-23 -6 -44 -6q-52 0 -121 41q54 70 57 108l-2 11q-12 50 -129 50q-8 27 -9 37q-2 16 -2 31zM425 1236q0 52 28 101 l57 72l7 9q52 51 115 52q31 0 64 -6q132 -50 159 -155l1 -9q1 -9 1 -18q0 -27 -10 -59q-16 -52 -64 -125q-38 -93 -107 -132q-23 -6 -44 -6q-52 0 -120 41q53 70 55 109v6h-1q-13 54 -131 54q-6 26 -8 36q-2 16 -2 30z" />
<glyph unicode="#" horiz-adv-x="1509" d="M-25 1003v7q0 14 9 25q14 11 293 32q17 195 23 221q7 62 159 62q144 0 204 -67q-2 -50 -11 -189q50 4 100 7q15 161 19 184q7 63 159 63q144 0 204 -68q-2 -43 -9 -169q84 -1 93.5 -17.5t65 -71t64.5 -88.5v-11q0 -33 -40 -51q-39 -17 -202 -29l-7 -87q144 0 154.5 -18 t65.5 -72t64 -86l1 -6v-8q0 -33 -40 -50q-44 -21 -271 -36q-17 -140 -31 -190q-4 -60 -174 -60q-192 0 -206 53v4q0 8 3 13q9 37 24 161q-43 -1 -90 -2q-16 -121 -29 -166q-4 -60 -174 -60q-193 0 -205 52v5q0 5 2 11q10 36 24 151q-2 0 -14 -1q-23 0 -95 65q-84 76 -96 124 v13q0 14 10 26q12 8 221 26l9 103h-57q0 -1 -27 -1q-23 0 -96 66q-84 75 -96 122zM626 733q45 4 91 7l8 79q-44 -1 -93 -2q-4 -47 -6 -84z" />
<glyph unicode="$" horiz-adv-x="1483" d="M-25 912q0 76 32 136q38 74 133 137q79 43 155 87q55 33 193 57q128 26 241 29q31 73 50 92q20 20 57 20q61 0 142 -61q80 -60 88 -90v12q146 -34 231 -128q28 -32 37 -64q4 -9 5 -17q1 -9 1 -17q0 -47 -42 -83q-54 -49 -129 -49q-114 0 -156 103q-8 21 -46 33 q-24 -68 -59 -181q356 -15 433 -294q8 -25 13 -63l3 -20q1 -9 1 -19q0 -123 -189 -246q-210 -135 -477 -135h-22q-58 -173 -97 -225q-29 -5 -59 -5q-72 0 -133 23q-86 30 -101 90q-3 6 -4 14t-1 16q0 22 9 46q18 52 29 86q-180 44 -315 158q-13 7 -16 21l-1 5v5q0 38 81 93 q86 58 149 58q45 0 59 -29q25 -49 125 -73q46 137 90 267q-106 -1 -139 -10q-18 -6 -48 -6q-87 0 -183 36q-113 40 -128 97l-1 2q-5 18 -7 33q-4 31 -4 59zM334 962l1 -4l1 -5q13 -32 192 -32q14 0 35 1q50 141 81 222q-18 -1 -54 -21q-90 -39 -174 -76q-82 -43 -82 -79v-6z M737 391l8 -1q16 -1 32 -1q123 0 175 50q49 46 49 157q0 11 -1 22l-1 7q-9 34 -149 56l-17 3q-35 -108 -79 -260q-8 -29 -9 -33h-8z" />
<glyph unicode="%" horiz-adv-x="1585" d="M-25 1096q0 139 98 248q105 120 239 120q18 0 35 -2q129 -15 239 -125q98 -95 124 -196q4 -12 5 -23q2 -17 2 -33q0 -57 -32 -107q-43 -58 -89 -115q-76 -104 -251 -104q-20 0 -41 1q-98 8 -194 75q-100 74 -127 175q-2 11 -3 20l-1 5q-4 31 -4 61zM109 136q0 12 4 22 q19 45 254 374q247 345 256 359q50 36 245 281q205 259 211 262q38 36 137 36q139 0 162 -89l1 -10q1 -8 1 -17q0 -21 -8 -46q-32 -99 -325 -432q-294 -334 -360 -477l-124 -112q-171 -227 -199 -296q-7 -25 -45 -25q-48 0 -121.5 52t-86.5 101l-1 5q-1 7 -1 12zM245 1111 q0 -10 1 -18q1 -3 2 -9q8 -32 77 -32h5q72 0 72 42q0 6 -1 13q-1 5 -2 11q-13 54 -69 60q-9 1 -18 1q-62 0 -67 -58v-10zM719 314q0 138 99 246q104 120 237 120q18 0 35 -2q130 -16 240 -124q98 -96 124 -199q2 -12 4 -25q2 -16 2 -31q0 -56 -31 -105q-43 -58 -89 -116 q-77 -103 -253 -103q-19 0 -40 1q-98 7 -194 75q-100 73 -125 175q-2 10 -4 19l-1 8q-4 31 -4 61zM989 326q0 -10 1 -18l1 -8q8 -32 77 -32h5q73 0 73 43q0 6 -1 11l-2 12q-14 54 -71 60q-9 1 -18 1q-61 0 -65 -58v-11z" />
<glyph unicode="&#x26;" horiz-adv-x="1297" d="M-25 956q0 149 164 259q181 123 422 123q60 0 98 -4q36 99 56 120q20 23 58 23q61 0 147 -69q77 -62 85 -95v-3q0 -23 -28 -23h-4q5 0 5 -5q0 -3 -3 -9q151 -46 170 -109l1 -7q1 -9 1 -17q0 -86 -147 -137q-23 63 -93 88l-4 1l9 -3q-31 -98 -78 -271q7 0 37 1 q2 -49 2 -72q0 -124 -54 -124h-7l-3 1q-12 0 -28 -4q-32 -125 -73 -289l-2 -9q134 55 212 140q10 16 34 16q46 0 127 -62.5t93 -111.5v-11q0 -15 -9 -28q-38 -42 -273 -133q-176 -68 -260 -88q-57 -201 -97 -258q-29 -6 -59 -6q-73 0 -134 25q-86 33 -102 99q-3 6 -4 14 q-1 9 -1 18q0 22 8 48q15 50 24 84q-32 13 -78 43q-112 75 -141 183q-2 10 -4 23q-2 15 -2 31q0 150 186 284q-198 86 -240 246q-6 18 -8 36q-3 21 -3 42zM258 907q10 -40 150 -77q34 -8 82 -11q55 178 90 283q-12 -2 -56 -19q-266 -103 -266 -167v-9zM315 347q0 -5 1 -8 l1 -7v-3q9 -29 17 -32q26 87 44 147q-63 -44 -63 -97z" />
<glyph unicode="'" horiz-adv-x="532" d="M-25 1237q0 51 27 100l57 72l6 9q54 51 117 52q31 0 64 -6q132 -50 158 -155q1 -4 2 -11q1 -9 1 -18q0 -27 -11 -57q-16 -52 -63 -125q-39 -93 -107 -132q-23 -6 -44 -6q-52 0 -121 41q54 70 56 108l-2 11q-12 50 -130 50l-8 36q-2 16 -2 31z" />
<glyph unicode="(" horiz-adv-x="1004" d="M-25 639q0 267 145 503q225 367 651 367l107 -137q1 -18 1 -31q0 -41 -15 -75q-27 -60 -91 -63q-190 -12 -333 -231q-109 -167 -109 -345q0 -45 7 -90q5 -31 12 -62q25 -100 135 -153q91 -44 219 -44q36 -67 45 -106q3 -8 4 -17q2 -11 2 -22q0 -82 -104 -153 q-235 0 -391 79q-197 101 -250 310q-14 58 -23 115q-12 79 -12 155z" />
<glyph unicode=")" horiz-adv-x="1061" d="M-25 84q0 47 24 102q39 86 97 92h22q163 0 293 118q126 113 185 293q36 107 36 203q0 35 -5 69q-4 20 -9 39q-23 98 -143 157q-99 48 -210 48q-89 5 -119 127q-3 14 -5 29q-2 17 -2 32q0 79 72 120q245 0 448 -146.5t262 -380.5q5 -23 9 -48q6 -43 6 -90 q0 -246 -181 -589q-70 -135 -306 -214q-194 -65 -400 -65q-55 12 -69 67q-3 8 -4 15q-1 11 -1 22z" />
<glyph unicode="*" horiz-adv-x="1164" d="M-25 856q2 16 12 24q12 12 263 39q-89 128 -208 293q41 74 188 74q146 0 174 -57q37 -59 55 -86l29 82q14 61 164 61q145 0 199 -70q-27 -71 -102 -254q27 1 70 1q97 0 108 -22q8 -13 58 -68t54 -89l-1 -11q-3 -32 -42 -50q-51 -21 -234 -37q174 -256 202 -278 q14 -10 14 -23v-5q-5 -50 -191 -50q-163 0 -197 66q3 3 5 4q-3 14 -35 63q-11 -30 -14 -57v-14q-10 -62 -177 -62q-194 0 -203 56l1 4q0 2 3 13q28 23 114 252q-30 -1 -71 -1h-45q-1 -1 -18 -1q-24 0 -89 67q-78 75 -85 123v3q-1 4 -1 10z" />
<glyph unicode="+" horiz-adv-x="1170" d="M-25 845v8q0 16 10 28q15 15 391 53q38 145 73 290q9 62 160 62q144 0 205 -69q-21 -70 -78 -255q30 1 73 1q96 0 108 -21q9 -13 65 -68t63 -88v-12q0 -32 -39 -50q-60 -29 -353 -51q-63 -221 -63 -268v-9q0 4 1 4v-1q-4 -69 -173 -69q-192 0 -206 53v5q0 4 3 14 q24 23 88 253q-32 -1 -73 -1h-42q0 -1 -21 -1q-23 0 -95 66q-84 75 -95 121z" />
<glyph unicode="," horiz-adv-x="531" d="M-25 88q0 50 28 99l56 73l8 9q52 50 114 51q31 0 64 -6q132 -50 159 -155l1 -9q1 -10 1 -21q0 -25 -9 -56q-18 -52 -65 -125q-38 -93 -107 -132q-23 -6 -44 -6q-52 0 -120 41q53 70 55 113v5q-14 51 -132 51q-6 27 -7 37q-2 15 -2 31z" />
<glyph unicode="-" horiz-adv-x="1170" d="M-25 853v9q0 15 9 26q14 14 334 47q338 35 485 35q101 0 112 -16.5t67 -71.5t63 -88v-12q0 -32 -39 -50q-67 -31 -419 -54q-243 -16 -354 -16h-44q-1 -1 -22 -1q-23 0 -95 66q-84 75 -95 121z" />
<glyph unicode="." horiz-adv-x="531" d="M-25 184q0 49 29 88l56 71l7 9q52 51 115 52q31 0 63 -6q133 -50 159 -155l1 -9q1 -10 1 -21q0 -25 -9 -57l-20 -42q-38 -55 -76 -87q-61 -46 -124 -47q-45 0 -83 18q-89 51 -112 138q-4 11 -5 21q-2 14 -2 27z" />
<glyph unicode="/" horiz-adv-x="1371" d="M-25 150q0 12 4 22q19 45 253 374q248 345 255 359q52 36 247 281q205 259 211 262q38 36 137 36q139 0 162 -89l1 -9q1 -8 1 -16q0 -23 -9 -48q-31 -99 -325 -432q-294 -334 -359 -483l-124 -106q-171 -227 -199 -296q-7 -25 -46 -25q-47 0 -120.5 52t-86.5 101l-1 5 q-1 7 -1 12z" />
<glyph unicode="0" horiz-adv-x="1646" d="M-25 598q0 153 52 308q85 263 288 429q215 178 489 178q236 0 439.5 -146.5t262.5 -380.5q5 -23 9 -48q6 -43 6 -90q0 -246 -181 -590q-71 -134 -306 -213q-194 -65 -398 -65q-226 0 -382 79q-197 101 -250 310q-12 47 -19 94q-10 67 -10 135zM322 640q0 -47 8 -97 q5 -33 14 -68q25 -100 135 -153q91 -44 203 -44q195 0 382 259q150 207 150 376q0 28 -4 54q-3 17 -7 33q-24 98 -144 157q-99 48 -209 48q-267 0 -419 -224q-109 -159 -109 -341z" />
<glyph unicode="1" horiz-adv-x="669" d="M-25 1188q68 70 118 115q124 115 170 127q72 17 126 17q129 0 148 -82q3 -7 5 -18q2 -33 2 -64q0 -86 -14 -175q-16 -98 -27 -114q-44 -183 -91 -369q-101 -408 -101 -490v-6q-29 -51 -60 -99q-31 -50 -92 -50q-13 0 -25 2q-97 15 -130 135q125 531 185 885 q-20 -5 -57 -16q-76 -23 -99 -23q-18 0 -26 8q-10 8 -12 23q-3 10 -5 27q-7 49 -15 167z" />
<glyph unicode="2" horiz-adv-x="1399" d="M-25 244q0 12 3 23q41 114 484 386t476 336q24 49 24 85q0 7 -1 12l-2 9q-14 56 -114 56q-49 0 -99 -15q-69 -19 -220 -88q-144 -66 -194 -97q-19 -10 -40 -10q-60 0 -135 67.5t-91 125.5l-1 7q-1 7 -1 14q0 104 245 206q171 62 339 123q50 21 107 21q156 0 301 -126 q140 -122 182 -286q2 -12 5 -25l2 -11q2 -17 2 -35q0 -142 -166 -315q-119 -125 -305 -246q-109 -44 -109 -63q0 -14 59 -14q35 0 91 5q205 11 305 11q51 0 75 -3q50 -6 69 -80q3 -14 5 -27q3 -20 3 -39q0 -30 -8 -60q-22 -80 -87 -80q-14 0 -51 9.5t-61 9.5 q-231 0 -910 -153q-156 149 -180 239l-1 11q-1 9 -1 17z" />
<glyph unicode="3" horiz-adv-x="1314" d="M-25 1184v7q0 16 8 28q36 49 269.5 154.5t329.5 118.5q39 4 74 4q174 0 301 -98q113 -86 144 -208q3 -14 5 -28q3 -21 3 -41q0 -169 -183 -325q204 -102 250 -285q6 -22 9 -43q4 -28 4 -55q0 -166 -158 -290q-178 -143 -420 -143q-193 0 -378 63q-190 63 -210 138v7 q-2 11 -2 22q0 93 145 153q24 -73 99 -103.5t173 -30.5q117 0 204 40q264 120 264 197q0 2 -1 5l-1 5q-12 50 -154 93q-62 19 -250 19q-81 0 -212 -5q-4 62 -4 95q0 126 53 126h8l2 -1q31 1 149 48q150 62 241 136q97 75 97 138q0 7 -1 13l-1 7l-1 2q-21 72 -145 72 q-113 0 -237 -56q-136 -64 -215 -168q-11 -16 -35 -16q-47 0 -128.5 72t-94.5 126z" />
<glyph unicode="4" horiz-adv-x="1365" d="M-25 621q0 7 1 12q34 177 140 400q70 135 138 266q43 85 199 85q123 0 145 -81l1 -7q1 -9 1 -17q0 -25 -11 -55q-17 -43 -89 -152q-75 -113 -107 -176q-39 -83 -39 -149q109 6 279 26q147 29 177 29q8 0 8 -2v11q0 46 27 266q36 279 79.5 329t146.5 50q109 0 125 -68v-3 q1 -4 1 -11q0 -10 -2 -19l-117 -532q84 6 115 6q30 0 38 -37q3 -8 4 -18q5 -32 5 -88q0 -48 -5 -129q-159 -47 -185 -47h-16q-39 -397 -64 -463.5t-152 -66.5q-108 0 -125 63l-3 19q1 65 33 190q17 67 35 135q9 34 9 61q0 10 -1 18q-1 3 -2 9l-7 28l-251 -26 q-221 -41 -251 -55q-10 -3 -19 -3q-43 0 -148 78q-102 78 -112 118z" />
<glyph unicode="5" horiz-adv-x="1366" d="M-25 197q0 86 182 161q13 -19 13 -21q54 -18 148 -31q133 -21 272 -21q159 0 220 59q36 35 36 83q0 10 -2 20q-1 8 -4 17q-12 48 -48 84q-20 19 -88 19q-152 0 -447 -86q-224 113 -254 198l-2 6v10q0 84 165 645q642 80 882 80q94 0 120 -16q52 -34 66 -94q4 -10 5 -20 q2 -15 2 -30q0 -43 -18 -84q-33 -75 -98 -75q-15 0 -31 6q-30 11 -118 11q-206 0 -612 -51q-37 -118 -37 -191q0 -17 2 -29l2 -12q7 -27 22 -27q4 0 10 1q219 44 303 44q103 0 198 -28q261 -76 308 -261q3 -13 5 -27q3 -23 3 -48q0 -72 -29 -153q-36 -98 -101 -172 q-156 -179 -460 -179q-188 0 -399 67q-180 56 -202 91q-8 14 -12 31l-1 9q-1 7 -1 14z" />
<glyph unicode="6" horiz-adv-x="1410" d="M-25 533q0 101 23 203q46 192 240 394q285 297 707 303q73 -62 104 -182q8 -34 12 -61q4 -26 4 -46q0 -56 -41 -79q-51 5 -95 5q-258 0 -457 -135q-205 -139 -208 -269q17 19 145 86q109 59 193 82q134 38 242 38q293 0 402 -272q18 -44 27 -82q5 -20 8 -40q4 -25 4 -48 q0 -93 -62 -162q-72 -82 -277 -174q-253 -114 -464 -114q-108 0 -238 30q-84 18 -148.5 104t-95.5 210q-10 41 -16 82q-9 63 -9 127zM337 318q0 -3 1 -6l1 -6q12 -50 131 -50q68 0 150 21q174 44 290 108q123 68 123 132q0 5 -1 10l-1 7q-23 93 -162 93q-125 0 -228 -43 q-144 -61 -205 -116q-27 -24 -85 -112q-14 -21 -14 -38z" />
<glyph unicode="7" horiz-adv-x="1228" d="M-25 1293q0 49 39 62q70 26 498 90q369 53 438 53q14 0 24 -3q74 -37 115 -199q7 -27 11 -50q3 -23 3 -43q0 -23 -5 -42q-7 -24 -298 -542q-315 -553 -332 -584q-28 -55 -99 -55q-58 0 -121 40.5t-72 77.5v6q0 60 235 524q191 380 202 451q-53 -9 -135 -25 q-276 -52 -295 -78q-7 -13 -26 -13q-38 0 -96.5 100.5t-78.5 178.5q-3 14 -5 26q-2 14 -2 25z" />
<glyph unicode="8" horiz-adv-x="1500" d="M-15 396q0 79 43 185q79 194 208 239q-146 57 -178 188q-4 11 -5 21q-2 17 -2 34q0 132 150 280q84 84 321 128q191 36 399 36q143 0 191 -19q147 -53 175 -157q2 -9 3 -19q2 -14 2 -29q0 -146 -189 -326q59 -39 135 -160q86 -131 130 -288l2 -5q3 -7 4 -15q1 -11 1 -21 q0 -155 -332 -309q-305 -141 -586 -175q-36 -4 -68 -4q-307 0 -396 356q-4 10 -5 21q-3 18 -3 39zM343 440q0 -9 1 -16q1 -5 4 -13q10 -44 53 -69q74 -46 158 -46q68 0 147 31q49 22 97 46q58 27 114 89q57 63 57 114q0 6 -1 11q-1 4 -2 10q-11 47 -86 77q-31 12 -78 12 q-142 0 -363 -99q-51 -24 -79 -75q-22 -37 -22 -72zM414 1070q0 -6 1 -11l2 -10q13 -54 80 -104q160 16 274 67q155 72 155 198v5l-1 8q-7 27 -97 27q-121 0 -268 -52q-146 -54 -146 -128z" />
<glyph unicode="9" horiz-adv-x="1395" d="M-25 964q0 96 36 158q63 106 265 198q271 121 525 121q118 0 230 -25q156 -34 216 -267q8 -35 14 -72q9 -61 9 -124q0 -117 -30 -244q-52 -217 -59 -240q-69 -203 -202 -322q-182 -163 -482 -167q-73 62 -95 151q-5 19 -7 36q-3 18 -3 32q0 54 45 78q45 -5 80 -5 q219 0 345 151q121 140 124 239v2q0 1 -2 1q-15 0 -132 -65q-93 -51 -174 -74q-75 -22 -159 -22q-184 0 -333 88q-160 95 -198 249q-4 18 -7 38q-6 45 -6 85zM230 932q0 -6 1 -11l2 -9q33 -136 253 -136q76 0 87 7q245 126 351 287q8 11 8 23q0 2 -1 5l-1 7q-8 33 -66.5 61 t-137.5 28q-82 0 -152 -31q-232 -107 -255 -118q-89 -56 -89 -113z" />
<glyph unicode=":" horiz-adv-x="531" d="M-25 184q0 49 29 88l56 71l7 9q52 51 115 52q31 0 63 -6q133 -50 159 -155l1 -9q1 -10 1 -21q0 -25 -9 -57l-20 -42q-38 -55 -76 -87q-61 -46 -124 -47q-45 0 -83 18q-89 51 -112 138q-4 11 -5 21q-2 14 -2 27zM-25 735q0 49 28 87l56 71l6 9q54 51 117 52q31 0 63 -6 q132 -50 159 -155l1 -9q1 -9 1 -18q0 -27 -10 -60l-20 -42q-37 -55 -76 -87q-61 -46 -123 -47q-45 0 -83 18q-91 51 -112 138q-4 11 -5 21q-2 15 -2 28z" />
<glyph unicode=";" horiz-adv-x="531" d="M-25 108q0 50 28 99l56 73l8 9q52 50 114 51q31 0 64 -6q132 -50 159 -155l1 -9q1 -10 1 -21q0 -25 -9 -56q-18 -52 -65 -125q-38 -93 -107 -132q-23 -6 -44 -6q-52 0 -120 41q53 70 55 113v5q-14 51 -132 51q-6 27 -7 37q-2 15 -2 31zM-25 735q0 49 28 87l56 71l6 9 q54 51 117 52q31 0 63 -6q132 -50 159 -155l1 -9q1 -9 1 -18q0 -27 -10 -60l-20 -42q-37 -55 -76 -87q-61 -46 -123 -47q-45 0 -83 18q-91 51 -112 138q-4 11 -5 21q-2 15 -2 28z" />
<glyph unicode="&#x3c;" horiz-adv-x="1229" d="M-25 786l1 11q2 17 14 27q18 17 397 169q403 161 483 161q22 0 36 -14q6 -12 55.5 -66.5t53.5 -85.5l1 -6l-1 -9q-3 -33 -42 -49q-132 -62 -345 -147q16 -1 185 -54q168 -53 176 -69t60 -78q53 -59 55 -89l1 -6l-1 -6q-3 -45 -91 -45q-105 0 -434 84t-410 84 q-2 -3 -19 -3q-24 0 -90 67q-78 75 -85 124z" />
<glyph unicode="=" horiz-adv-x="1207" d="M-25 981v7q0 14 9 25q16 14 334 47q338 35 486 35q101 0 111.5 -16.5t65.5 -71t64 -87.5v-12q0 -33 -40 -50q-64 -32 -419 -55q-242 -16 -353 -16h-38q0 -1 -27 -1q-23 0 -96 66q-84 75 -96 122zM11 626v4q0 16 12 28t331 46q339 35 486 35q102 0 111.5 -17.5t65 -71 t63.5 -85.5l2 -5v-8q0 -34 -40 -51q-66 -31 -420 -54q-241 -16 -352 -16h-40v21q0 -22 -27 -22q-23 0 -95 65q-84 76 -96 123z" />
<glyph unicode="&#x3e;" horiz-adv-x="1178" d="M-25 1071v12q2 17 14 30q7 7 22 7q41 0 456 -98q458 -108 477 -148q5 -9 55.5 -64t52.5 -86l1 -5l-1 -9q-3 -33 -43 -49q-658 -291 -776 -291h18q0 -3 -27 -3q-24 0 -90 67q-78 75 -85 122l-1 9l1 6q2 11 9 22q14 12 162 71q172 70 233 87q-99 30 -266 73v25 q0 -21 -26 -21q-24 0 -97 90q-80 100 -89 153z" />
<glyph unicode="?" horiz-adv-x="1440" d="M-25 1281v8q0 24 24 31q102 50 208 102q200 81 407 81q24 0 48 -1q192 -8 397 -123q192 -106 226 -194q12 -32 20 -62q5 -19 7 -37q3 -24 3 -46q0 -199 -276 -274q-8 -2 -305 -52q-217 -37 -265.5 -73.5t-91.5 -155.5q-188 88 -205 155l-1 13v7q0 64 43 122q78 52 146 87 q104 89 170 107q138 20 273 40q97 18 128 58q11 15 11 34q0 6 -1 14q0 4 -1 7q-15 57 -108 87q-107 47 -221 47q-26 0 -48 -2q-19 -12 -202 -71q-143 -60 -176 -84q-12 -6 -24 -6q-40 0 -108 73t-78 108zM190 184q0 49 29 88l56 71l7 9q52 51 115 52q31 0 63 -6 q133 -50 159 -155l1 -9q1 -10 1 -21q0 -25 -9 -57l-20 -42q-38 -55 -76 -87q-61 -46 -124 -47q-45 0 -83 18q-89 51 -112 138q-4 11 -5 21q-2 14 -2 27z" />
<glyph unicode="@" d="M-21 598q0 153 52 308q85 263 288 429q215 178 489 178q236 0 439.5 -146.5t262.5 -380.5q5 -23 9 -49q6 -43 6 -88q0 -55 -9 -114q-19 -153 -83 -183q-137 -152 -468 -152q-80 0 -169 10q-42 4 -87 10q-97 7 -192 75q-101 74 -126 176q-1 8 -4 18l-1 8q-4 31 -4 61 q0 138 99 246q104 120 237 120q18 0 35 -2q128 -16 225 -90t125 -190q6 -18 8 -36q4 -28 4 -57v-10h15q82 0 97 56q5 18 5 45q0 28 -6 65q-6 42 -20 95q-23 98 -143 157q-99 48 -209 48q-267 0 -419 -224q-109 -159 -109 -341q0 -47 8 -97q5 -33 14 -68q25 -100 135 -153 q91 -44 203 -44q243 0 334 66q31 8 70 8q82 0 162 -26q98 -33 111 -82v-4q1 -3 1 -9q0 -5 -2 -12q-72 -135 -319 -195q-176 -44 -403 -44q-226 0 -382 79q-197 101 -250 310q-12 47 -19 94q-10 67 -10 135zM651 768q0 -8 2 -15l1 -9q8 -32 77 -32h5q73 0 73 43q0 6 -1 11 l-2 12q-14 54 -71 60q-9 1 -18 1q-61 0 -65 -59q-1 -6 -1 -12z" />
<glyph unicode="A" horiz-adv-x="1492" d="M-25 163q0 18 3 37q50 231 439 738q388 507 523 507h5q9 -1 16 -1q16 0 33 3q35 3 42 3q62 0 157 -85q38 -35 70 -163q25 -96 44 -224q28 -191 46 -457q14 -212 14 -321q0 -120 -24 -134q-41 -25 -119 -25q-100 0 -136 48q-11 18 -19 44q-2 12 -4 26q-5 32 -5 74 q0 26 1 39q-76 19 -182 19q-155 0 -308 -48q-130 -39 -188 -84l-136 -180q-236 23 -267 148q-3 6 -4 15q-1 10 -1 21zM634 572l324 20q63 39 63 52v1q-1 3 -14 117q-6 57 -12 95q-6 39 -11 59q-2 8 -2 12t2 4h1q-20 9 -39 9q-82 0 -181 -140q-56 -80 -131 -229z" />
<glyph unicode="B" horiz-adv-x="1483" d="M-25 334q100 522 204 995q82 191 552 191q259 0 364 -39q147 -53 175 -157q2 -9 3 -19q2 -14 2 -29q0 -146 -189 -326q59 -39 135 -160q86 -131 130 -288l2 -5q3 -7 4 -15q1 -11 1 -21q0 -155 -332 -309q-305 -141 -586 -175q-27 -4 -56 -4q-140 0 -253 76t-145 206 q-5 19 -8 38q-3 20 -3 41zM376 434q0 -18 2 -33q1 -7 2 -13q5 -18 13 -27q67 -70 162 -70q69 0 232 75q58 27 113 89q58 63 58 114q0 6 -1 11q-1 4 -2 10q-11 47 -87 77q-34 15 -89 15q-151 0 -375 -85q-28 -97 -28 -163zM470 981q137 14 251 67q156 72 156 199v2l-1 7 q-7 30 -101 30q-122 0 -252 -50z" />
<glyph unicode="C" horiz-adv-x="1360" d="M-25 702q0 91 28 167q101 283 177 401q182 278 459 278q215 0 389 -101q165 -95 194 -212v-4q0 -81 -85 -146q-71 -56 -123 -56q-15 0 -37 8q-119 235 -294 235q-15 0 -31 -2q-94 -9 -217 -208q-105 -172 -158 -348q-3 -22 -3 -44q0 -30 5 -60q3 -20 8 -39 q28 -116 126 -210q62 -59 186 -59q126 0 210 57q63 44 63 99q0 8 -2 16q-1 7 -3 13q-1 9 -13 34l259 115q86 -92 114 -201q3 -14 5 -28q3 -18 3 -35q0 -30 -9 -54q-52 -147 -252 -245q-187 -93 -393 -93q-71 0 -134 13q-163 35 -287 190q-112 141 -159 329q-11 46 -18 89 q-8 53 -8 101z" />
<glyph unicode="D" horiz-adv-x="1551" d="M-25 241q0 9 1 19q151 1059 172 1059q30 78 268 138q161 43 225 43q9 0 17 -1q329 -34 500 -109q214 -96 256 -267q6 -16 8 -33q4 -27 4 -55q0 -32 -5 -66q-48 -323 -374 -665q-100 -105 -266 -176q-155 -65 -450 -134q-60 -14 -110 -14q-191 0 -234 178q-6 19 -8 37 q-4 23 -4 46zM363 414l3 -13q7 -28 60 -28q20 0 45 4q61 10 314 223q140 117 240 262q82 121 82 173q0 3 -1 5l-1 9q-36 103 -132 144q-54 22 -110 22q-15 0 -30 -2q-205 -20 -216 -23q-94 -24 -137 -111q-26 -61 -117 -665z" />
<glyph unicode="E" horiz-adv-x="1288" d="M-25 173q12 211 90 667q104 598 205 630q101 31 334 71q264 45 390 45q85 0 101 -28q44 -61 61 -132q4 -12 5 -23q2 -14 2 -26q0 -47 -34 -73q-32 -24 -346 -59q-273 -32 -273.5 -40t-19.5 -117l-17 -83q64 26 152 42q195 35 279 35q66 0 75.5 -17.5t65 -71t64.5 -87.5 v-12q0 -33 -40 -51q-52 -22 -362 -120q-281 -86 -289 -86q-3 -4 -55 -269q413 196 569 196q39 0 60 -16q53 -38 100 -103.5t58 -113.5q3 -8 4 -14q1 -8 1 -13q0 -24 -17 -38q-39 -32 -429 -163q-366 -123 -436 -123q-11 0 -17 2q-254 67 -279 166l-1 6q-1 9 -1 19z" />
<glyph unicode="F" horiz-adv-x="1288" d="M-25 163v5q12 211 90 667q104 598 205 630q101 31 334 71q264 45 390 45q85 0 101 -28q44 -61 61 -132q4 -12 5 -23q2 -14 2 -26q0 -47 -34 -73q-32 -24 -346 -59q-273 -32 -273.5 -40t-19.5 -177l66 12q31 0 69 7q195 35 279 35q66 0 75.5 -17.5t65 -71t64.5 -87.5v-12 q0 -33 -40 -51q-52 -22 -362 -120q-281 -86 -289 -86q-3 -4 -134 -604q-35 -48 -96 -48q-68 0 -131 48t-77 107q-3 6 -4 13q-1 8 -1 15z" />
<glyph unicode="G" horiz-adv-x="1635" d="M-25 651q0 102 22 218q34 174 86 270q125 227 396 341q192 81 384 81q18 0 35 -1q162 -4 334 -139q70 -54 144 -142q-31 -46 -47 -68q-47 -66 -76 -103q-19 -16 -80 -19l1 -2l-1 1q-10 38 -214 153q-139 -10 -202 -29q-53 -15 -153 -73q-114 -65 -181 -137 q-51 -56 -117 -166q-50 -87 -50 -177q0 -24 4 -49q2 -16 6 -33q33 -133 163 -222t299 -89q125 0 228 153q79 116 79 190l3 10q-65 -2 -223 -33q-28 -4 -55 -4q-90 0 -156 53q-56 41 -68 91q-3 5 -3 13v4q0 11 3 18q15 34 123 72q43 15 103 31q360 31 580 113q20 8 42 8 q55 0 127 -198q-35 -170 -73 -183q-54 -17 -108 -149q-77 -191 -148 -278q-164 -197 -449 -197q-163 0 -338 66q-147 54 -225 120q-128 112 -173 289q-8 34 -13 70q-9 60 -9 126z" />
<glyph unicode="H" horiz-adv-x="1406" d="M-24 160v8q0 20 4 44q14 74 144 641q151 592 193 652q21 28 60 28q62 0 152 -80q81 -72 92 -108v-4q0 -22 -27 -22h-4q-10 0 -93 -398q281 29 403 32q17 136 35 291q2 181 58 196q72 17 126 17q128 0 151 -82q3 -7 5 -17q4 -34 5 -66q1 -29 1 -57q0 -58 -5 -117 q-12 -98 -22 -113q-35 -184 -71 -369q-78 -389 -78 -482v-5l3 -6q-29 -55 -56 -102q-30 -51 -92 -51q-13 0 -25 2q-97 15 -136 133q35 285 67 545q-37 -3 -121 -9q-214 -14 -304 -16q-17 -90 -40 -213q-9 -191 -80 -369q-49 -83 -92 -83q-73 0 -138 29q-84 37 -108 111 q-3 7 -4 15q-3 12 -3 25z" />
<glyph unicode="I" horiz-adv-x="1225" d="M-25 63q0 46 4 83q11 163 90 169h103q52 0 71.5 21.5t91.5 329.5q71 307 93 481q-3 -4 -57 -4q-109 0 -355 -27q19 124 38 223q43 150 177 156q116 5 299 5q182 0 443 -5q76 -77 113 -201q7 -23 11 -42q2 -19 3 -33v-8q0 -41 -28 -57q-75 -36 -251 -36h-35 q-176 -686 -177 -783h8q62 0 252 33l7 -31q10 -46 11 -85q1 -9 1 -19t-1 -19q-12 -148 -142 -160q-160 -15 -767 -77l-2 37q-1 26 -1 49z" />
<glyph unicode="J" horiz-adv-x="1529" d="M-25 638q0 51 9 76q27 93 119 93q64 0 127 -43q54 -36 61 -67l2 -2q1 -1 1 -9t-2 -10v-12q0 -28 6 -67q8 -51 25 -120q31 -125 68 -145q97 -52 198 -52t154 70q17 23 68 328q10 196 37 376q3 6 3 8l-1 1v7q0 1 -8 1q-4 0 -8 -1q-25 -2 -45 -2q-168 0 -196 112q-3 8 -4 16 q-2 14 -2 28q0 28 7 57q39 186 413 198q96 2 145 2q125 0 170 -19t61 -79l10 -42q5 -31 9 -49l2 -7v-9q0 -33 -31 -77q-50 -65 -140 -65q-15 0 -28 2q-3 -2 -12 -50q2 -3 2 -10q2 -4 3 -13q2 -17 2 -44q0 -122 -53 -447q-85 -371 -139 -424q-163 -168 -374 -168 q-148 0 -318 85q-87 52 -174 102q-92 46 -138 224q-10 43 -17 88q-7 51 -10 104q-2 31 -2 55z" />
<glyph unicode="K" horiz-adv-x="1720" d="M-26 190q47 104 78 170q-30 71 -55 114q-5 7 -9 17l-1 4q-2 7 -2 13v4q0 34 34 75q49 60 126 86q42 16 113 420q30 181 65 449q7 41 80 41q76 0 158 -36q86 -39 100 -91l4 -12q-16 -213 -28 -305q-28 -28 -28 -37q0 -4 7 -4q17 0 39 -13q42 13 306 190 q331 221 342.5 225.5t28.5 4.5q52 0 136 -45t119 -95q8 -6 8 -18v-4q0 -97 -795 -569q-5 -12 -6 -19q59 -18 355 -226q329 -233 354 -295l1 -4l2 -7v-10q0 -49 -71 -102q-85 -61 -145 -61q-35 0 -46 27v4q-13 40 -752 481q-93 -450 -141 -545q-21 -37 -67 -37q-76 0 -195 89 q-105 79 -113 110zM794 753l1 -2q0 1 -1 2z" />
<glyph unicode="L" horiz-adv-x="1234" d="M-26 173q0 19 4 38q9 75 139 622q144 611 183 671q19 29 59 29q62 0 155 -79q84 -72 97 -108v-6q0 -21 -26 -21h-4q-23 0 -167 -907q-2 -11 -2 -21q0 -6 1 -12q0 -5 2 -9l1 -6q3 -8 15 -8q16 0 103 2q110 12 171 16q55 4 60 64q1 7 1 15q0 7 -1 16q-1 14 -5 30l-8 22 q77 28 148 28q134 0 189 -50q13 -12 15 -25l1 -3q3 -10 3 -19q1 -9 1 -21q0 -38 -10 -100q-13 -72 -24 -142q-5 -58 -355 -137q-250 -29 -435 -67q-18 -5 -49 -5q-73 0 -138 29q-86 36 -113 110q-3 7 -5 16q-3 11 -5 23q-1 8 -1 15z" />
<glyph unicode="M" horiz-adv-x="2050" d="M-20 274v9q3 107 167 570q158 445 203.5 506.5t178.5 61.5q57 0 138 -12q79 -12 107 -119q4 -17 6 -35q4 -24 4 -48q0 -11 -1 -20q-4 -43 -21 -57q1 -6 2 -15q8 -46 39 -170q30 -126 72 -276q363 582 742 875q298 -130 308 -170v-4q0 -20 -30 -26q-29 -3 -98 -607 q-64 -527 -64 -661q0 -12 1 -22v-4q0 -47 -60 -47q-100 0 -305 124q-19 11 -29 46q-2 10 -4 23q-5 35 -5 87q0 152 43 444l-24 22q-251 -298 -272 -372q-54 -194 -84 -243q-45 -70 -146 -70q-22 0 -49 2q-157 14 -192 151q-3 14 -5 32q-10 63 -11 180q-15 178 -29 272l-2 14 q-1 10 -2 19q-2 12 -5 24q-18 70 -83 70q-11 0 -94 -347q-103 -424 -113 -449q-18 -52 -70 -52q-60 0 -121.5 69.5t-82.5 155.5q-4 16 -6 32q-3 19 -3 37zM750 1124q6 1 9 4q-4 -3 -9 -4z" />
<glyph unicode="N" horiz-adv-x="1582" d="M-25 176q49 309 97 615q116 618 223 633q12 1 51.5 24.5t69.5 23.5q36 0 68 -30q78 -71 232 -377q130 -252 231 -498q16 86 80 453q83 479 132 486q20 3 42 3q53 0 120 -18q121 -31 136 -93v-7q0 -64 -149 -646q-141 -537 -141 -608v-4q5 -6 5 -11l1 -2v-7q0 -22 -29 -42 q-31 -22 -79 -22q-117 0 -206 134q-20 30 -216 405q-144 272 -171 272q-25 -2 -37 -36q-10 -30 -17 -64q-8 -21 -58 -363q-43 -301 -43 -363q0 -6 1 -10v-7q0 -37 -75 -37q-82 0 -155 42q-88 52 -111 141z" />
<glyph unicode="O" horiz-adv-x="1646" d="M-25 604q0 150 50 300q88 265 290 431q215 178 489 178q236 0 439.5 -146.5t262.5 -380.5q5 -23 9 -48q6 -43 6 -90q0 -246 -181 -590q-71 -134 -306 -213q-194 -65 -398 -65q-226 0 -382 79q-197 101 -250 310q-12 48 -19 96q-10 70 -10 139zM322 640q0 -47 8 -97 q5 -33 14 -68q25 -100 135 -153q91 -44 203 -44q195 0 382 259q150 207 150 376q0 28 -4 54q-3 17 -7 33q-24 98 -144 157q-99 48 -209 48q-267 0 -419 -224q-109 -159 -109 -341z" />
<glyph unicode="P" horiz-adv-x="1622" d="M-25 174v12q0 19 16 30q108 63 208 451q47 215 92 429q3 11 3 25q0 19 -4 44q-3 20 -9 46q-11 48 -16 82q-4 27 -4 44v10q5 110 437 208q42 9 115 9q185 0 347 -57q223 -79 317 -242q9 -16 14 -34q3 -7 4 -14q2 -12 2 -24q0 -109 -142 -263q-154 -168 -391 -301 q-253 -142 -459 -162q0 -8 -53 -171q-68 -205 -89 -236q-52 -80 -137 -80q-82 0 -165 74q-71 62 -86 120zM568 805q0 3 6 3q59 0 185 46.5t177 89.5q78 64 153 143q94 99 94 137v7h-1q-28 41 -228 41q-216 0 -278 -74q-14 -19 -66 -193q-42 -149 -42 -192v-8z" />
<glyph unicode="Q" horiz-adv-x="1689" d="M-25 598q0 153 52 308q85 263 288 429q215 178 489 178q236 0 439.5 -146.5t262.5 -380.5q5 -25 9 -51q6 -44 6 -91q0 -209 -122 -464q131 -98 160 -189l3 -7l1 -9q1 -7 1 -14q0 -43 -44 -91q-62 -63 -123 -63q-45 0 -61 38q-25 62 -78 114q-84 -78 -283 -133 q-173 -46 -339 -46q-226 0 -382 79q-197 101 -250 310q-12 47 -19 94q-10 67 -10 135zM322 640q0 -47 8 -97q5 -33 14 -68q25 -100 135 -153q91 -44 203 -44q128 0 256 118q-54 32 -149 83q-13 13 -16 28l-2 8q-1 8 -1 15q0 26 15 49q34 41 102 41q45 0 109 -19 q39 -14 86 -37q132 185 132 351q0 27 -4 53q-3 16 -7 32q-24 98 -144 157q-99 48 -209 48q-267 0 -419 -224q-109 -159 -109 -341z" />
<glyph unicode="R" horiz-adv-x="1622" d="M-25 174v12q0 19 16 30q108 63 208 451q47 215 92 429q3 11 3 25q0 19 -4 44q-3 20 -9 46q-11 48 -16 82q-4 27 -4 44v10q5 110 437 208q42 9 115 9q185 0 347 -57q223 -79 317 -242q9 -16 14 -34q3 -7 4 -14q2 -12 2 -24q0 -117 -160 -284q-176 -181 -392 -293 q472 -195 539 -413l3 -7l1 -9q1 -7 1 -14q0 -43 -44 -91q-62 -63 -123 -63q-43 0 -61 38q-71 186 -574 449q-92 -31 -182 -39q0 -8 -53 -171q-68 -205 -89 -236q-52 -80 -137 -80q-82 0 -165 74q-71 62 -86 120zM568 805q0 3 6 3q59 0 185 46.5t177 89.5q78 64 153 143 q94 99 94 137v7h-1q-28 41 -228 41q-216 0 -278 -74q-14 -19 -66 -193q-42 -149 -42 -192v-8z" />
<glyph unicode="S" horiz-adv-x="1500" d="M-25 962q0 85 27 154q34 92 126 172q76 56 150 110q54 43 193 75q151 38 307 38q362 0 510 -198q28 -40 39 -81q2 -10 4 -19q2 -14 2 -26q0 -54 -36 -96q-53 -62 -130 -62q-115 0 -160 129q-13 34 -100.5 66t-183.5 32q-91 0 -140 -35q-86 -49 -171 -98q-80 -53 -80 -103 q0 -5 1 -10l1 -7l1 -8q16 -43 194 -43q35 0 253 10q24 1 48 1q432 0 524 -373q8 -32 15 -80l4 -25q2 -15 2 -30q0 -151 -177 -301q-206 -174 -475 -174q-455 0 -704 260q-11 7 -15 24v11q0 44 75 111q84 74 149 74q46 0 61 -36q54 -124 479 -150q16 -1 32 -1q121 0 170 63 q45 57 45 184q0 24 -2 52l-1 8q-12 48 -153 77q-130 25 -315 25q-153 0 -187 -12q-19 -8 -50 -8q-88 0 -187 46q-112 50 -129 121l-1 3q-5 20 -8 39q-7 47 -7 91z" />
<glyph unicode="T" horiz-adv-x="1407" d="M-27 1341q249 43 478 82q448 72 638 72q38 0 65 -2q70 -10 111 -170q10 -39 14 -66q3 -19 3 -32q0 -28 -15 -39q-24 -17 -423 -60l-56 -60q5 -1 14 -6q-92 -85 -164 -499q-33 -225 -65 -454q-82 -127 -158 -127q-82 0 -152 124q-5 9 -7 19q-3 6 -4 15q-3 19 -3 45 q0 129 67 451q95 457 147 457h-11q-2 -2 -11 -12q1 -1 1 -2h-1q-1 0 -10 8q-7 4 -10 6q-65 -5 -122 -11q-132 -18 -157 -39q-14 -10 -27 -10q-69 0 -131 244q-6 28 -8 41z" />
<glyph unicode="U" horiz-adv-x="1615" d="M-25 385q0 99 85 486q25 121 126 560q28 108 128 108q61 0 131 -40q61 -40 70 -74v-7q0 -14 -13 -23q-24 -14 -111 -384q-68 -293 -68 -449q0 -41 5 -72q3 -15 6 -27q16 -66 103 -66q123 0 288 68q146 59 146 90v1l-1 4v8q0 66 123 442q126 388 168 466q21 35 74 35 q65 0 154.5 -56t98.5 -94l2 -7v-4q0 -21 -24 -31q-82 -31 -181 -564q-68 -373 -68 -552q0 -49 5 -82q2 -14 4 -24l7 -27q-93 -21 -160 -21q-166 0 -197 95q-4 12 -32 12q-99 0 -453 -163q-26 -13 -57 -13q-100 0 -209 107t-141 232q-4 16 -6 30q-2 10 -2 20q-1 6 -1 16z" />
<glyph unicode="V" horiz-adv-x="1446" d="M-25 1291q0 50 64 94q69 48 138 48q22 0 36 -8q39 -24 194 -645q29 -119 35 -146q28 149 116 313q71 140 211 278q152 144 322 303l232 -179q-44 -154 -70 -188q-55 -73 -240 -139q-105 -38 -214 -293q-85 -187 -160 -473q-33 -129 -71 -286q-333 143 -356 150 q-21 5 -29 32l-2 10q-1 10 -1 19q0 51 42 108v11q0 20 -6 56q-15 98 -68 312q-116 464 -166 588q-3 7 -5 17l-1 5q-1 7 -1 13z" />
<glyph unicode="W" horiz-adv-x="1979" d="M-25 730q0 62 1 128q10 506 67 506q281 -58 300 -129v-7q0 -6 -2 -12q-16 -41 -30 -275q-8 -135 -9 -205q107 167 213 334q177 278 222 278q9 0 18 -5h7q51 0 220 72l184 -708q78 154 187 367q218 421 267 421h8q208 -93 226 -158q0 -27 -255 -588q-226 -498 -226 -573 v-3q5 -6 6 -12l2 -3v-7q0 -73 -336 -142q-171 597 -289 849q-29 -49 -152 -303q-176 -361 -208 -509q-12 -66 -141 -66q-150 0 -208 93q-16 26 -29 75q-10 39 -17 90q-26 175 -26 492z" />
<glyph unicode="X" horiz-adv-x="1613" d="M-25 150q0 12 4 22q19 46 221 281q208 243 219 261q15 24 15 59q0 13 -2 28q-2 11 -5 25q-11 42 -30 66q-70 78 -142 160q-123 138 -131 168v11q0 37 46 96q58 71 118 71q24 0 44 -12q94 -63 228 -233q68 -91 139 -183q43 21 258 246q235 248 267 248q3 0 29 2h44 q165 0 188 -88l2 -10q1 -9 1 -19q0 -22 -8 -49q-30 -96 -318 -341q-241 -207 -246 -247q23 -67 26 -74q8 -17 37 -52q175 -223 243 -266q18 -13 25 -38v-7q1 -5 1 -11q0 -48 -52 -113q-66 -83 -125 -83q-18 0 -31 8q-63 37 -190 180q-122 134 -175 226q-36 -34 -193 -189 q-224 -223 -253 -290q-11 -23 -45 -23q-47 0 -120.5 52t-86.5 101l-1 5q-1 7 -1 12z" />
<glyph unicode="Y" horiz-adv-x="1376" d="M-25 1318q0 50 34 91q48 48 111 48q66 0 84 -51q15 -47 184 -250q133 -161 170 -195q51 143 238 392q162 217 273 217q90 0 161 -111q12 -17 16 -35q3 -6 4 -14q1 -9 1 -18q0 -53 -41 -113q-53 -74 -145 -132q-130 -81 -373 -524q-217 -396 -294 -628q-12 -36 -51 -36 q-55 0 -135 82t-93 131l-1 6v6q0 26 29 31q26 5 129 250q45 106 101 252q5 18 5 31q0 5 -1 10v2l3 -1q-38 13 -201 207q-177 207 -203 308q-2 10 -3 19q-2 13 -2 25z" />
<glyph unicode="Z" horiz-adv-x="1350" d="M-21 180q0 136 345 557q333 406 409 406h5q6 -1 9 -1q2 0 2 1q0 2 -1 6v5q0 2 -1 2q-99 -25 -188 -49q-210 -62 -239 -94q-15 -14 -36 -14q-54 0 -133.5 88t-96.5 151l-2 10v11q0 17 9 34l120 61q719 166 835 166h11q63 -5 117 -79.5t73 -149.5q4 -12 5 -24q2 -14 2 -25 q0 -25 -10 -42q-17 -27 -339 -363q-305 -321 -317 -357q-4 -12 -4 -23q0 -5 1 -9l1 -6q5 -23 26 -23q6 0 14 3q94 30 188 61q174 52 235 52q28 0 43 -12q37 -30 85 -85q63 -72 76 -120l1 -9q1 -6 1 -12q0 -27 -22 -40q-21 -14 -465 -131q-391 -104 -391 -133q-2 -36 -44 -36 q-60 0 -191 89q-121 81 -132 125z" />
<glyph unicode="[" horiz-adv-x="1029" d="M-25 173q12 211 90 667q104 598 205 630q285 85 463 85q83 0 103 -32q44 -61 61 -132q3 -13 5 -25q2 -14 2 -25q0 -46 -32 -71q-34 -24 -219 -44q-143 -14 -143.5 -21.5t-19.5 -116.5q-15 -81 -15 -93v-8q-6 -9 -114 -623q217 90 303 90q11 0 20 -1q60 -10 107 -74 t63 -128q3 -12 4 -23q2 -11 2 -19q0 -29 -20 -44q-38 -31 -280 -110q-219 -75 -283 -75q-11 0 -20 2q-255 67 -280 166l-1 6q-1 9 -1 19z" />
<glyph unicode="\" horiz-adv-x="1300" d="M-24 1215v8q0 37 46 96q58 71 118 71q26 0 45 -13q94 -62 229 -233q70 -94 144 -191q65 -112 319 -416q236 -283 270 -304q20 -13 26 -38l1 -6q1 -5 1 -12q0 -48 -53 -114q-66 -83 -125 -83q-18 0 -32 8q-55 33 -361.5 417.5t-356.5 479.5q-68 77 -140 159 q-124 138 -129 166z" />
<glyph unicode="]" horiz-adv-x="1054" d="M-25 206q0 58 31 81q34 25 231 44q127 14 151 14q6 0 6 -1q0 15 47 297q41 251 41 267v3q4 11 60 283q-246 -96 -391 -96h-15q-52 3 -67 56q-1 4 -2 11q-1 11 -1 22q0 47 23 114q27 89 61 114q39 32 234 100q177 63 239 63q14 0 25 -3q255 -67 279 -163l1 -9q1 -9 1 -19 q-13 -227 -87 -679q-96 -616 -199 -646q-95 -29 -300 -54q-182 -25 -256 -25q-65 0 -100 134q-5 26 -9 49q-3 24 -3 43z" />
<glyph unicode="^" horiz-adv-x="1024" d="M-26 1811q299 355 405 355h4q10 -1 20 -1q15 0 33 2q33 3 40 3q63 0 157 -85q98 -89 127 -121q102 -115 130 -232q6 -19 9 -45q-30 -68 -101.5 -119t-135.5 -51q-32 0 -67 20l-5 24q-10 42 -55 115q-46 75 -52.5 78t-13.5 3q-80 0 -257 -224q-108 53 -168 127 q-49 61 -62 119q-5 12 -8 32z" />
<glyph unicode="_" horiz-adv-x="1639" d="M-25 -163q0 14 11 25q12 12 423 29q440 18 697 18q266 0 277.5 -20.5t66.5 -74.5t63 -86l1 -7v-7q0 -44 -61 -55q-108 -25 -669 -28q-137 -1 -245 -1q-299 0 -344 5h-28q-23 0 -95 65q-84 76 -96 124v4q-1 4 -1 9z" />
<glyph unicode="`" horiz-adv-x="581" d="M-25 1846q0 52 30 92q56 75 64 82q50 50 112 50q27 0 56 -10q140 -49 167 -158q3 -10 4 -17q2 -12 2 -22q0 -11 -2 -21q-4 -18 -11 -28q5 -33 65 -242q-50 -3 -70 -3q-286 0 -395 186q-9 20 -16 42q-2 11 -4 20q-2 15 -2 29z" />
<glyph unicode="a" horiz-adv-x="1224" d="M-25 130q0 15 2 31q41 185 352 591q312 408 423 408h4q8 -1 13 -1q11 0 25 3q29 2 35 2q52 0 129 -69q31 -29 57 -133q20 -77 36 -179q22 -153 36 -366q12 -169 12 -257q0 -99 -23 -110q-33 -21 -97 -21q-83 0 -113 40q-9 15 -16 38q-1 9 -3 19q-4 27 -4 60q0 21 1 29 q-57 14 -141 14q-123 0 -244 -38q-104 -31 -149 -66l-110 -146q-195 19 -222 123q-1 4 -2 10q-1 9 -1 18zM515 461l250 16q47 30 47 38v1q-1 2 -11 93q-5 46 -10 76q-5 31 -9 48v5q0 5 2 5q-14 6 -27 6q-63 0 -141 -110q-44 -64 -101 -178z" />
<glyph unicode="b" horiz-adv-x="1216" d="M-25 267q80 418 163 797q67 156 447 156q208 0 293 -32q120 -43 142 -128q3 -8 3 -17q2 -10 2 -22q0 -118 -149 -261q44 -29 105 -126q69 -105 105 -232l1 -3q2 -6 4 -14v-16q0 -126 -268 -251q-245 -113 -469 -140q-22 -4 -47 -4q-114 0 -205.5 62t-117.5 167 q-4 15 -7 30q-2 17 -2 34zM306 347q0 -14 1 -26q1 -4 2 -9q5 -15 10 -22q51 -53 125 -53q54 0 183 59q46 21 89 69q45 51 45 90v9q0 1 -2 6q-8 37 -67 60q-26 12 -69 12q-120 0 -295 -67q-22 -75 -22 -128zM382 789q102 11 192 53q123 56 123 156v1l-1 5q-5 21 -76 21 q-97 0 -197 -38z" />
<glyph unicode="c" horiz-adv-x="1118" d="M-25 562q0 73 23 134q81 227 142 322q147 224 371 224q174 0 314 -81q134 -76 158 -173v-3q0 -67 -70 -120q-58 -46 -102 -46q-15 0 -34 10q-94 185 -231 185q-11 0 -23 -2q-73 -7 -171 -164q-83 -137 -125 -277q-3 -18 -3 -35q0 -24 4 -47q3 -16 7 -31q22 -92 99 -167 q48 -45 145 -45q99 0 165 44q49 34 49 76q0 6 -2 13q-1 5 -2 11t-12 29l215 95q72 -77 95 -165q2 -12 4 -22q2 -16 2 -29q0 -24 -7 -45q-43 -119 -204 -198q-151 -75 -317 -75q-58 0 -109 11q-132 28 -232 153q-90 114 -127 264q-10 38 -16 72q-6 43 -6 82z" />
<glyph unicode="d" horiz-adv-x="1271" d="M-25 193q0 7 1 15q121 851 139 851q23 62 216 110q130 35 182 35q8 0 14 -1q264 -27 402 -87q173 -78 207 -217q5 -12 7 -27q3 -21 3 -44q0 -26 -4 -53q-39 -260 -300 -534q-81 -85 -215 -142q-124 -52 -361 -108q-49 -11 -89 -11q-157 0 -192 146q-5 15 -7 30 q-3 18 -3 37zM295 332l3 -10q4 -20 43 -20q14 0 35 4q48 7 248 177q112 93 192 208q65 96 65 137v2l-2 7q-28 82 -103 114q-42 17 -86 17q-11 0 -22 -2q-165 -16 -173 -18q-73 -18 -106 -86q-21 -48 -94 -530z" />
<glyph unicode="e" horiz-adv-x="1060" d="M-25 138q10 170 72 535q84 480 167 507q81 25 268 57q212 36 313 36q71 0 85 -25q36 -49 51 -106q2 -10 3 -19q1 -12 1 -21q0 -41 -27 -61q-28 -21 -281 -49q-214 -25 -214.5 -30t-15.5 -92l-8 -40h10q38 0 100 12q156 28 224 28q56 0 64 -15t53 -58t52 -72v-10 q0 -29 -34 -44q-42 -18 -291 -96q-217 -66 -227 -66q-3 -4 -43 -207q322 153 449 153q33 0 51 -14q43 -30 81 -83t48 -93q1 -6 2 -10q1 -8 1 -12q0 -21 -16 -33q-31 -26 -343 -130q-295 -100 -352 -100q-9 0 -15 2q-206 54 -226 135l-1 5q-1 8 -1 16z" />
<glyph unicode="f" horiz-adv-x="1060" d="M-25 130v4q10 170 72 535q84 480 167 507q81 25 268 57q212 36 313 36q71 0 85 -25q36 -49 51 -106q2 -10 3 -19q1 -12 1 -21q0 -41 -27 -61q-28 -21 -281 -49q-214 -25 -214.5 -30t-15.5 -92l-14 -71l80 39q17 0 36 4q156 28 224 28q56 0 64 -15t53 -58t52 -72v-10 q0 -29 -34 -44q-42 -18 -291 -96q-217 -66 -227 -66q-3 -4 -108 -484q-30 -41 -82 -41q-56 0 -107.5 39.5t-64.5 88.5q-1 4 -2 9q-1 8 -1 13z" />
<glyph unicode="g" horiz-adv-x="1338" d="M-25 521q0 82 18 175q27 139 69 217q101 183 319 275q155 65 309 65q15 0 29 -1q131 -3 270 -112q56 -44 118 -117q-27 -39 -39 -56q-39 -53 -62 -83q-15 -13 -73 -63v51q-14 30 -167 117q-109 -8 -159 -23q-41 -12 -121 -58q-91 -52 -144 -109q-40 -44 -93 -132 q-39 -69 -39 -140q0 -19 3 -39q2 -12 6 -26q25 -104 127.5 -174.5t235.5 -70.5q97 0 178 120q63 92 63 150v4q-47 -2 -170 -26q-23 -3 -45 -3q-74 0 -128 43q-46 34 -56 73q-3 5 -3 13v3q0 11 4 17q12 28 100 59q36 12 84 25q287 25 462 90q17 7 36 7q48 0 107 -162 q-28 -139 -62 -151q-41 -12 -83 -116q-62 -153 -119 -224q-133 -159 -364 -159q-131 0 -272 53q-119 44 -182 97q-103 91 -139 233q-7 28 -11 57q-7 48 -7 101z" />
<glyph unicode="h" horiz-adv-x="1155" d="M-24 128v6q0 17 3 36q11 59 115 513q121 474 155 523q19 24 53 24q51 0 125 -65q66 -58 75 -89v-3q0 -22 -27 -22h-3q-4 0 -68 -310q219 23 311 25q14 106 28 229q2 148 50 161q57 14 102 14q107 0 127 -70q1 -6 3 -13q3 -28 4 -53q1 -24 1 -46q0 -47 -4 -94 q-10 -79 -18 -91q-28 -147 -57 -295q-62 -311 -62 -385v-3l3 -6q-24 -45 -46 -83q-25 -43 -78 -43q-12 0 -22 2q-80 11 -112 111q28 227 53 431q-23 -2 -91 -7q-171 -11 -239 -13q-13 -69 -31 -167q-7 -153 -65 -296q-40 -69 -78 -69q-59 0 -113 24q-70 30 -88 91l-4 12 q-2 10 -2 21z" />
<glyph unicode="i" horiz-adv-x="1010" d="M-25 50q0 37 3 67q9 134 77 139h83q39 0 53.5 16t71.5 262q56 242 73 381q-4 -5 -39 -5q-87 0 -290 -22q16 105 31 184q36 123 147 128q92 4 239 4q146 0 357 -4q63 -64 94 -164q4 -18 8 -34q1 -15 2 -27v-6q0 -36 -25 -49q-61 -30 -203 -30h-24q-137 -531 -141 -618h2 q49 0 205 27l7 -28q8 -38 9 -70v-30q-10 -122 -118 -132q-128 -12 -618 -62l-3 34q-1 21 -1 39z" />
<glyph unicode="j" horiz-adv-x="1253" d="M-25 510q0 41 7 62q23 78 100 78q53 0 105 -36q45 -29 52 -58v14q1 0 1 -21q0 -8 -1 -9v-9q0 -22 4 -53q7 -41 20 -96q25 -98 53 -113q76 -41 155 -41q78 0 118 54q14 18 55 261q8 156 30 301q1 4 2 5l-1 1v5q0 -2 -1 -2q-2 0 -5 -1q-21 -2 -38 -2q-139 0 -161 93 q-3 6 -4 13q-1 12 -1 23q0 23 5 46q32 152 335 162q77 2 117 2q101 0 138.5 -16t50.5 -66l8 -34q4 -24 7 -38l2 -7v-7q0 -28 -25 -64q-42 -54 -117 -54q-11 0 -21 2v-2q0 -7 -5 -35q1 -2 1 -6q2 -4 2 -12q2 -13 2 -35q0 -98 -42 -358q-69 -298 -113 -341 q-132 -136 -303 -136q-120 0 -257 69q-69 41 -139 81q-75 38 -113 182q-8 35 -13 71q-6 41 -8 83q-2 24 -2 44z" />
<glyph unicode="k" horiz-adv-x="1406" d="M-26 151q37 86 62 137q-23 55 -44 90q-4 6 -6 13l-1 3q-2 7 -2 12v4q0 28 28 62q40 49 103 70q31 12 87 333q24 145 52 360q8 35 69 35q62 0 129 -28q71 -33 83 -76l3 -11q-13 -171 -21 -231l-23 -42q12 0 32 -10q33 12 241 151q265 177 275 181t25 4q43 0 111 -36.5 t98 -78.5q6 -6 6 -15v-4q0 -79 -637 -457q-3 -6 -4 -10q55 -21 282 -181q265 -187 285 -238l1 -2l2 -7v-9q0 -41 -59 -84q-68 -50 -119 -50q-33 0 -42 25v3q-10 30 -593 378q-73 -353 -112 -430q-18 -32 -58 -32q-63 0 -159 72q-85 64 -91 89z" />
<glyph unicode="l" horiz-adv-x="1017" d="M-26 138q0 15 3 32q8 59 112 497q115 489 147 538q16 25 51 25q52 0 128 -64q69 -58 79 -90v-4q0 -21 -26 -21h-3q-14 0 -129 -722q-1 -8 -1 -16v-11q0 -1 1 -5l1 -5q2 -3 8 -3q13 0 82 1q88 10 137 13q39 3 43 48q1 5 1 11t-1 12q-1 12 -5 25l-4 21q64 23 122 23 q109 0 155 -41q11 -11 13 -21l1 -5q2 -8 2 -14q1 -7 1 -17q0 -31 -8 -81q-10 -56 -19 -113q-4 -49 -288 -113q-200 -24 -348 -54q-15 -4 -40 -4q-61 0 -113 24q-71 29 -93 90q-2 7 -4 13q-1 8 -4 18q-1 8 -1 13z" />
<glyph unicode="m" horiz-adv-x="1671" d="M-20 219v7q2 87 134 457q126 357 163.5 407.5t146.5 50.5q46 0 111 -10q67 -10 90 -98q3 -14 5 -29q3 -19 3 -38q0 -9 -1 -18q-3 -33 -16 -45q0 -5 1 -11q7 -36 31 -135q24 -101 55 -210q284 456 591 693q243 -106 252 -140v-4q0 -18 -27 -25q-21 -2 -75 -482 q-52 -421 -52 -528q0 -10 1 -18v-3q0 -42 -53 -42q-81 0 -247 100q-16 11 -24 39q-3 9 -4 19q-4 29 -4 70q0 122 34 354l-14 13q-196 -234 -213 -292q-43 -156 -67 -196q-38 -58 -122 -58q-17 0 -40 2q-129 11 -156 124q-4 11 -5 26q-8 50 -9 144q-12 142 -23 217l-2 12 q-1 8 -2 15q-1 9 -3 19q-13 52 -62 52q-5 0 -70 -274q-83 -339 -91 -359q-15 -45 -61 -45q-50 0 -100.5 57t-67.5 126q-3 13 -5 26q-2 16 -2 30zM600 894q11 2 14 7q-6 -5 -14 -7z" />
<glyph unicode="n" horiz-adv-x="1296" d="M-25 140q39 248 78 493q93 498 182 510q9 1 40.5 20t57.5 19q32 0 58 -26q63 -57 186 -303q101 -195 181 -386q11 78 59 353q67 383 109 389q17 2 35 2q43 0 97 -14q100 -26 113 -78v-6q0 -52 -120 -518q-112 -429 -112 -485q4 -3 4 -16v-4q0 -19 -25 -36 q-25 -19 -66 -19q-97 0 -169 110q-16 24 -173 323q-114 216 -132 216q-16 -1 -25 -26q-8 -24 -14 -51q-6 -17 -46 -290q-34 -240 -34 -290v-13q0 -34 -65 -34q-67 0 -126 34q-73 43 -90 116z" />
<glyph unicode="o" horiz-adv-x="1347" d="M-25 483q0 121 40 241q71 213 233 347q174 143 395 143q191 0 355 -118t212 -306q4 -19 7 -39q5 -35 5 -73q0 -197 -145 -473q-58 -109 -248 -173q-156 -52 -320 -52q-182 0 -308 64q-160 82 -203 250q-9 39 -15 78q-8 56 -8 111zM263 512q0 -37 6 -77q4 -26 11 -54 q20 -78 106 -120q71 -35 160 -35q153 0 301 206q119 164 119 298q0 23 -3 43q-2 14 -5 26q-19 77 -113 123q-78 38 -165 38q-211 0 -331 -177q-86 -126 -86 -271z" />
<glyph unicode="p" horiz-adv-x="1328" d="M-25 139v10q0 18 15 27q85 49 164 358q38 172 74 343q2 8 2 20q0 15 -3 35q-2 15 -7 36q-9 39 -13 66q-3 22 -3 36v8q4 91 353 170q34 7 93 7q149 0 280 -46q180 -64 256 -195q8 -14 13 -29q1 -5 2 -11q2 -9 2 -20q0 -88 -115 -212q-124 -135 -314 -242 q-203 -114 -369 -130q1 0 1 -1q0 -12 -40 -133q-54 -165 -71 -190q-43 -66 -114 -66q-68 0 -136 61q-58 50 -70 98zM459 650q46 0 146 37t140 71q62 51 122 114q74 78 74 107v4q-24 31 -178 31q-170 0 -218 -59q-11 -13 -52 -152q-34 -119 -34 -153z" />
<glyph unicode="q" horiz-adv-x="1381" d="M-25 478q0 123 42 248q68 211 231 345q174 143 395 143q191 0 355 -118t212 -307q4 -20 7 -41q5 -35 5 -73q0 -168 -97 -370q103 -77 127 -151l3 -7v-7q1 -4 1 -11q0 -36 -36 -75q-51 -52 -102 -52q-40 0 -54 33q-20 49 -57 86q-65 -60 -225 -104q-140 -37 -273 -37 q-182 0 -308 64q-160 82 -203 250q-9 38 -15 76q-8 54 -8 108zM263 512q0 -37 6 -77q4 -26 11 -54q20 -78 106 -120q71 -35 160 -35q100 0 197 90q-39 23 -115 64q-11 12 -15 25l-1 6q-1 7 -1 13q0 22 14 41q27 35 85 35q36 0 89 -15q31 -12 65 -28q102 143 102 275 q0 21 -3 42q-2 13 -5 25q-19 77 -113 123q-78 38 -165 38q-211 0 -331 -177q-86 -126 -86 -271z" />
<glyph unicode="r" horiz-adv-x="1328" d="M-25 139v10q0 18 15 27q85 49 164 358q38 172 74 343q2 8 2 20q0 15 -3 35q-2 15 -7 36q-9 39 -13 66q-3 22 -3 36v8q4 91 353 170q34 7 93 7q149 0 280 -46q180 -64 256 -195q8 -14 13 -29q1 -5 2 -11q2 -9 2 -20q0 -95 -129 -229q-142 -146 -308 -232 q372 -153 426 -329l3 -6v-9q1 -5 1 -11q0 -35 -36 -75q-51 -52 -102 -52q-38 0 -54 33q-56 148 -455 356q-72 -24 -144 -30q1 0 1 -1q0 -12 -40 -133q-54 -165 -71 -190q-43 -66 -114 -66q-68 0 -136 61q-58 50 -70 98zM459 650q46 0 146 37t140 71q62 51 122 114 q74 78 74 107v4q-24 31 -178 31q-170 0 -218 -59q-11 -13 -52 -152q-34 -119 -34 -153z" />
<glyph unicode="s" horiz-adv-x="1230" d="M-25 770q0 68 22 124q27 74 102 139q61 45 120 88q44 35 156 61q122 31 247 31q293 0 413 -161q23 -32 32 -66q1 -8 3 -15q1 -12 1 -21q0 -45 -29 -79q-44 -52 -108 -52q-96 0 -133 106q-10 26 -78.5 51t-144.5 25q-71 0 -109 -27q-69 -40 -136 -79q-62 -41 -62 -79v-9 l1 -4l1 -5q12 -32 150 -32q28 0 202 8h39q350 0 423 -301q8 -26 13 -65l3 -20q2 -12 2 -24q0 -122 -143 -244q-166 -140 -384 -140q-366 0 -566 209q-9 6 -14 22v9q0 38 62 91q68 61 122 61q41 0 54 -32q42 -96 379 -117q12 -1 25 -1q94 0 132 49q35 45 35 145q0 19 -2 41v7 q-9 35 -119 58q-103 20 -251 20q-121 0 -148 -10q-16 -6 -41 -6q-72 0 -152 37q-92 41 -106 99l-2 3q-3 16 -5 31q-6 38 -6 74z" />
<glyph unicode="t" horiz-adv-x="1156" d="M-28 1076q205 35 388 66q359 58 511 58q31 0 53 -2q59 -7 93 -139q8 -31 11 -52q3 -15 3 -27q0 -24 -14 -34q-20 -15 -339 -49q-41 -44 -44 -44l9 -9q-70 -66 -128 -396q-26 -180 -52 -364q-67 -104 -131 -104q-69 0 -126 102q-4 7 -6 14q-3 6 -3 14q-3 14 -3 36 q0 104 54 362q77 369 122 369h-11l-13 -13q2 -3 2 -4q-1 0 -6 4q-6 3 -8 5q-49 -4 -94 -9q-104 -14 -123 -31q-14 -8 -25 -8q-59 0 -110 197q-5 25 -6 34z" />
<glyph unicode="u" horiz-adv-x="1322" d="M-25 308q0 80 68 389q20 97 101 449q22 89 107 89q51 0 108 -33q49 -33 58 -62v-6q0 -15 -13 -22q-17 -9 -86 -304q-55 -234 -55 -358q0 -33 4 -57q3 -12 5 -23q12 -48 78 -48q97 0 228 54q114 46 114 68l-1 4v6q0 54 99 355q100 311 134 373q18 31 64 31q54 0 127 -46 t80 -78l2 -5v-4q0 -20 -23 -28q-62 -24 -141 -449q-54 -298 -54 -441q0 -39 4 -66q1 -10 4 -18l3 -26q-77 -17 -132 -17q-136 0 -162 79q-2 7 -21 7q-78 0 -360 -130q-22 -11 -48 -11q-82 0 -170.5 86.5t-113.5 186.5q-4 14 -6 27q-1 8 -1 15q-1 5 -1 13z" />
<glyph unicode="v" horiz-adv-x="1187" d="M-25 1033q0 42 53 78q57 39 114 39q19 0 29 -6q35 -21 160 -519q22 -91 22 -94q18 96 89 228q57 113 169 224q122 115 261 245l192 -148q-35 -125 -57 -153q-45 -60 -195 -113q-82 -30 -168 -232q-68 -149 -128 -378q-26 -103 -58 -234q-272 117 -291 122q-18 6 -26 29 l-1 9q-1 7 -1 15q0 42 34 89v6q0 16 -5 44q-12 79 -54 249q-93 372 -132 469q-5 7 -5 17l-1 3q-1 5 -1 11z" />
<glyph unicode="w" horiz-adv-x="1613" d="M-25 584q0 50 1 102q8 409 59 409q228 -47 244 -107v-14q-14 -35 -25 -221q-6 -92 -7 -147q81 125 161 252q143 224 182 224h13q5 -4 7 -4q39 0 179 60l145 -559q57 111 144 282q175 339 218 339h8q169 -76 184 -130q0 -23 -204 -472q-180 -395 -181 -456l1 -3l4 -8l2 -4 v-6q0 -62 -278 -119q-134 472 -229 675q-24 -45 -115 -234q-141 -289 -166 -407q-10 -56 -118 -56q-123 0 -171 77q-13 21 -23 61q-9 31 -14 72q-21 140 -21 394z" />
<glyph unicode="x" horiz-adv-x="1320" d="M-25 120q0 9 3 19q16 37 178 226q166 194 175 208q11 18 11 45q0 11 -1 22q-2 9 -4 20q-8 33 -23 51q-56 62 -114 128q-99 111 -106 137v9q0 31 38 79q48 58 98 58q20 0 39 -10q76 -51 183 -188q53 -71 109 -143q36 21 202 196q188 198 216 198q2 0 23 2h36 q137 0 154 -74l3 -9v-15q0 -18 -6 -40q-24 -78 -256 -275q-188 -161 -195 -194q18 -53 20 -58q7 -13 29 -41q140 -178 194 -211q15 -11 22 -34v-15q0 -39 -42 -91q-54 -70 -104 -70q-17 0 -29 8q-50 30 -152 144q-95 104 -137 177q-31 -29 -150 -147q-178 -178 -201 -231 q-10 -21 -41 -21q-39 0 -99.5 42.5t-69.5 83.5l-1 3q-2 6 -2 11zM737 574q1 -2 1 -3v2z" />
<glyph unicode="y" horiz-adv-x="1131" d="M-25 1054q0 42 28 76q40 40 93 40q57 0 72 -44q12 -37 146 -198q99 -120 130 -151q41 110 189 307q131 176 222 176q75 0 133 -91q10 -14 14 -30q2 -5 3 -10q1 -8 1 -15q0 -44 -34 -93q-43 -60 -117 -107q-103 -64 -297 -417q-173 -317 -235 -502q-9 -32 -45 -32 q-47 0 -112 67t-75 107l-2 5v5q0 23 27 29q19 3 100 197q36 85 81 202q4 13 4 23q0 3 -1 7v1q-38 23 -158 165q-141 166 -163 247q-2 10 -2 17q-2 10 -2 19z" />
<glyph unicode="z" horiz-adv-x="1111" d="M-21 144q0 110 277 448q233 284 311 320q-60 -15 -117 -30q-167 -49 -189 -74q-15 -13 -33 -13q-46 0 -110.5 71.5t-78.5 124.5l-1 8v8q0 15 9 30l97 50q576 133 670 133h9q53 -4 97 -65t59 -121q4 -10 5 -20q1 -11 1 -20q0 -21 -8 -36q-14 -22 -272 -291 q-243 -256 -253 -284q-3 -9 -3 -17q0 -4 1 -6l1 -6q3 -15 16 -15q4 0 9 2q75 24 150 49q141 42 190 42q25 0 39 -11q29 -24 68 -68q52 -59 61 -98l1 -6q1 -5 1 -11q0 -24 -20 -36q-17 -11 -373 -105q-309 -82 -309 -104q-3 -31 -41 -31q-49 0 -156 72q-98 65 -107 102z" />
<glyph unicode="{" horiz-adv-x="1029" d="M-25 173q12 211 90 667q104 598 205 630q285 85 463 85q83 0 103 -32q44 -61 61 -132q3 -13 5 -25q2 -14 2 -25q0 -46 -32 -71q-34 -24 -219 -44q-143 -14 -143.5 -21.5t-19.5 -116.5q-15 -81 -15 -93v-8q-6 -9 -114 -622q215 89 303 89q11 0 20 -1q60 -10 107 -74 t63 -128q3 -12 4 -23q2 -11 2 -19q0 -29 -20 -44q-38 -31 -280 -110q-219 -75 -283 -75q-11 0 -20 2q-255 67 -280 166l-1 6q-1 9 -1 19z" />
<glyph unicode="|" horiz-adv-x="840" d="M-25 -139q0 25 7 52q97 414 195 827q197 819 243 877q20 28 59 28q62 0 149 -80q77 -72 87 -108q0 -26 -29 -26h-4q-23 0 -241 -1113q-107 -536 -161 -630q-29 -8 -60 -8q-74 0 -136 30q-85 37 -103 111q-3 8 -4 16q-2 12 -2 24z" />
<glyph unicode="}" horiz-adv-x="1050" d="M-29 206q0 58 31 81q34 25 231 44q127 14 151 14q6 0 6 -1q0 15 47 297q41 251 41 267v3q4 11 60 283q-246 -96 -391 -96h-15q-52 3 -67 56q-1 4 -2 11q-1 11 -1 22q0 47 23 114q27 89 61 114q39 32 234 100q177 63 239 63q14 0 25 -3q255 -67 279 -163l1 -9q1 -9 1 -19 q-13 -227 -87 -679q-96 -616 -199 -646q-95 -29 -300 -54q-182 -25 -256 -25q-65 0 -100 134q-5 26 -9 49q-3 24 -3 43z" />
<glyph unicode="~" horiz-adv-x="1000" d="M-17 1854q19 83 79.5 154.5t138.5 85.5q6 2 14 2q41 0 125 -49q92 -52 127 -94.5t50 -42.5q37 0 71 173q42 14 72 14q54 0 106 -34.5t107 -71.5q2 -19 2 -33q0 -42 -14 -116q-33 -148 -113 -208q-76 -54 -146 -54q-74 0 -158.5 64.5t-107.5 64.5q-46 0 -113 -130 q-112 55 -172 129q-48 61 -64 120q-2 12 -4 26z" />
<glyph unicode="&#xa1;" horiz-adv-x="968" d="M-25 79q0 130 231 445l134 405q0 33 98 33q63 0 166 -4q37 -2 140 -6q-49 -49 -62 -174q-30 -250 -39 -302q-6 -36 -58 -433q-23 -63 -181 -63q-38 0 -159 6q-69 3 -117 3q-23 0 -42 -1h-6q-85 0 -102 63l-2 9q-1 10 -1 19zM412 1252q0 25 9 57l20 42q38 55 76 87 q61 46 124 47q45 0 83 -18q89 -51 112 -138q4 -11 5 -21q2 -14 2 -27q0 -49 -29 -88l-56 -71l-7 -9q-52 -51 -115 -52q-31 0 -63 6q-133 50 -159 155l-1 9q-1 10 -1 21z" />
<glyph unicode="&#xa2;" horiz-adv-x="1368" d="M-25 661q0 79 36 144q112 210 193 298q193 205 467 205h27q25 51 41 66q22 20 58 20q60 0 143 -59q78 -54 86 -85v-4q6 -2 29 -12q162 -71 188 -162q-2 -68 -93 -117q-72 -41 -122 -41q-14 0 -35 5q-50 80 -79 100q-68 -178 -207 -615q-3 -9 -3 -11l1 4q37 4 94 32 q64 33 64 72q0 4 -1 6q0 5 -2 9q-2 7 -14 32l263 84q84 -68 108 -151q2 -10 4 -22q1 -10 1 -20q0 -26 -11 -49q-59 -111 -263 -184q-168 -61 -332 -66q-56 -156 -96 -205q-27 -5 -57 -5q-72 0 -133 22q-86 27 -101 86q-3 6 -4 11q-1 8 -1 14q0 22 10 48q19 50 32 87 q-59 29 -124 90q-107 106 -147 248q-11 34 -15 66q-5 30 -5 59zM273 640q0 -15 2 -30q3 -15 6 -29q24 -81 81 -124q43 116 99 265q90 239 136 352q-39 -11 -149 -135q-112 -127 -171 -256q-4 -21 -4 -43z" />
<glyph unicode="&#xa3;" horiz-adv-x="1425" d="M-25 730l5 34q18 16 290 80l6 223q15 138 83 219q58 55 111 110q43 44 150 77q116 38 238 38q283 0 404 -200q22 -39 32 -79q2 -10 4 -19q2 -17 2 -32q0 -48 -24 -88q-40 -64 -104 -64q-94 0 -133 130q-12 38 -45.5 67.5t-100.5 29.5q-134 0 -228 -108q-56 -69 -56 -127 v-8l3 -2l1 -81q97 19 176 19q102 0 111.5 -17t64.5 -71t64 -85l1 -6v-8q0 -33 -40 -50q-61 -30 -371 -96l9 -203q323 51 429 51q39 0 61 -16q51 -38 97.5 -93t57.5 -104q3 -8 4 -14q1 -8 1 -13q0 -24 -17 -38q-42 -33 -527 -123q-372 -83 -440 -83q-11 0 -17 2 q-255 67 -280 167v6q-1 5 -1 12v17l260 123l6 236q-69 -2 -80.5 -2.5t-14.5 -0.5q-23 0 -96 66q-83 75 -96 124z" />
<glyph unicode="&#xa4;" horiz-adv-x="1613" d="M-25 150q0 12 4 22q19 46 221 281q112 130 160 187v-1q1 0 1 4q-3 8 -4 18l-1 4q-5 32 -5 62q0 95 42 168q-68 77 -138 157q-123 138 -131 168v11q0 37 46 96q58 71 118 71q24 0 44 -12q94 -63 228 -233q31 -42 52 -68q27 10 77 10q18 0 36 -2q54 -7 89 -23 q47 45 135 138q243 256 275 256q3 0 29 2h44q165 0 188 -88l2 -10q1 -9 1 -19q0 -22 -8 -49q-30 -96 -318 -341q-71 -60 -111 -98q24 -39 36 -89q4 -12 5 -23q3 -17 3 -34q0 -57 -32 -106q-29 -39 -50 -66q146 -183 209 -223q18 -13 25 -38v-7q1 -5 1 -11q0 -48 -52 -113 q-66 -83 -125 -83q-18 0 -31 8q-63 37 -190 180q-74 81 -113 134h-15q-20 0 -40 1q-51 4 -82 16q-39 -36 -118 -114q-224 -223 -253 -290q-11 -23 -45 -23q-47 0 -120.5 52t-86.5 101l-1 5q-1 7 -1 12zM622 737q0 -7 1 -12q0 -4 2 -8q8 -34 77 -34h5q73 0 73 43q0 6 -1 11 q-2 7 -3 13q-13 53 -69 59q-9 1 -18 1q-62 0 -66 -59q-1 -7 -1 -14z" />
<glyph unicode="&#xa5;" horiz-adv-x="1376" d="M-25 1339q0 50 34 91q48 48 111 48q66 0 84 -51q15 -47 184 -250q133 -161 170 -195q51 143 238 392q162 217 273 217q90 0 161 -111q12 -17 16 -35q3 -6 4 -14q1 -9 1 -18q0 -53 -41 -113q-53 -74 -145 -132q-81 -51 -193 -221q67 0 77.5 -16.5t65.5 -71t64 -87.5v-12 q0 -33 -40 -50q-58 -28 -339 -50l-8 -16q-27 -48 -35 -64q126 11 217 11q102 0 111.5 -17.5t65 -71t63.5 -85.5l2 -5v-8q0 -34 -40 -51q-66 -31 -420 -54q-89 -6 -145 -9q-72 -153 -113 -274q-12 -36 -51 -36q-55 0 -135 82t-93 131l-1 6v6q0 26 30 31q10 2 44 67 q-6 5 -50 44q-84 76 -96 123l-1 8v4q0 15 9 26q15 13 247 38q21 49 39 94q-30 -1 -73 -1h-38q0 -1 -27 -1q-23 0 -96 66q-84 75 -96 122l-1 7v6q0 16 12 28q11 11 234 35q-16 18 -72 85q-177 207 -203 308q-2 10 -3 19q-2 13 -2 25z" />
<glyph unicode="&#xa6;" horiz-adv-x="840" d="M-25 -139q0 25 7 52q91 384 178 676q81 42 177 48q15 1 29 1q68 0 148 -28q-72 -285 -73 -292q-107 -536 -161 -630q-29 -8 -60 -8q-74 0 -136 30q-85 37 -103 111q-3 8 -4 16q-2 12 -2 24zM212 804q167 762 208 813q20 28 59 28q62 0 149 -80q77 -72 87 -108 q0 -26 -29 -26h-4q-8 0 -122 -607q-109 -32 -211 -32q-55 0 -137 12z" />
<glyph unicode="&#xa7;" horiz-adv-x="1400" d="M-25 1058q0 81 13 150q24 126 99 237q64 78 127 154q44 61 169 106q134 54 276 54q328 0 475 -276q27 -54 39 -108q3 -14 5 -27q4 -28 4 -52q0 -61 -24 -109q-43 -87 -117 -87q-106 0 -155 175q-15 53 -96.5 98t-164.5 45q-76 0 -114 -47q-74 -70 -147 -137 q-66 -74 -66 -146q0 -12 2 -24l3 -23q8 -27 20 -33l-1 -1q1 0 7 8q106 120 240 120q18 0 35 -2q129 -15 239 -125q20 -19 32 -33q280 -71 371 -501q10 -43 20 -110l5 -35q4 -35 4 -69q0 -192 -134 -385q-173 -245 -418 -245q-412 0 -656 365q-8 8 -11 25l-1 4q-1 8 -1 16 q0 56 57 142q71 104 135 104q44 0 59 -45q59 -179 440 -215q14 -2 27 -2q103 0 142 90q31 64 31 194q0 64 -8 143l-2 13q-13 57 -69 84l-13 -15q-76 -103 -251 -103q-20 0 -41 1q-98 8 -193 75q-57 41 -83 80h13q-83 0 -176 65q-101 69 -122 163l-1 4q-5 27 -9 53 q-15 100 -15 187zM502 782q0 -10 1 -19q0 -3 1 -6q9 -34 78 -34h5q72 0 72 42q0 6 -1 13q-1 5 -2 11q-13 54 -69 60q-9 1 -18 1q-62 0 -67 -58v-10z" />
<glyph unicode="&#xa8;" horiz-adv-x="1070" d="M-25 1784q0 49 29 88l56 71l7 10q53 50 115 51q31 0 63 -6q133 -50 159 -155l1 -9q1 -10 1 -21q0 -25 -9 -57l-20 -42q-38 -55 -76 -87q-61 -46 -124 -47q-45 0 -82 18q-90 51 -114 139q-2 10 -4 19q-2 15 -2 28zM514 1784q0 49 29 88l56 71l7 10q53 50 115 51 q31 0 63 -6q133 -50 159 -155l1 -9q1 -10 1 -21q0 -25 -9 -57l-20 -42q-38 -55 -76 -87q-61 -46 -124 -47q-45 0 -83 18q-89 51 -113 139q-2 10 -4 19q-2 15 -2 28z" />
<glyph unicode="&#xa9;" horiz-adv-x="1216" d="M-25 1224q0 180 105 318q135 178 367 178q228 0 414 -174.5t222 -418.5q8 -53 8 -103q0 -179 -105 -317q-135 -177 -366 -177q-229 0 -414.5 174.5t-222.5 418.5q-8 52 -8 101zM127 1208q0 -39 6 -81q29 -191 168 -324t304 -133q162 0 259 129q76 103 76 240q0 41 -7 84 q-20 134 -93 239q-5 -42 -47 -74q-39 -31 -70 -31q-9 0 -28 5q-59 116 -138 116q-6 0 -14 -1q-40 -4 -98 -98q-52 -85 -78 -171q-1 -10 -1 -21q0 -15 2 -29q1 -9 3 -18q14 -56 61 -101q27 -26 83 -26q59 0 97 26q27 19 27 42q0 4 -1 7l-1 7q0 4 -8 22l147 66q51 -55 65 -111 q3 -8 4 -15q1 -9 1 -17q0 -18 -5 -31q-28 -78 -132 -129q-96 -48 -203 -48q-37 0 -70 7q-86 19 -149 98q-59 74 -81 169q-8 24 -11 46q-4 27 -4 52q0 47 14 85q51 143 90 203q95 144 241 144q86 0 160 -31q-110 75 -234 75q-162 0 -257 -129q-78 -104 -78 -243z" />
<glyph unicode="&#xaa;" d="M0 200v1100q0 200 200 200h1100q200 0 200 -200v-1100q0 -200 -200 -200h-1100q-200 0 -200 200zM25 200q1 -175 175 -175h1101q174 0 174 176v1099q0 175 -175 175h-1100q-174 0 -175 -175v-1100z" />
<glyph unicode="&#xab;" horiz-adv-x="2160" d="M-25 784v11q0 18 12 30q16 16 381 168q387 161 467 161q22 0 35 -14q7 -11 62.5 -65.5t62.5 -85.5l1 -6v-8q0 -34 -39 -50q-126 -62 -329 -147q19 -2 193 -55q83 -25 128 -42q-64 62 -74 103v11q0 18 12 30q16 16 381 168q387 161 467 161q22 0 35 -14q7 -11 62.5 -65.5 t62.5 -85.5l1 -6v-8q0 -34 -39 -50q-126 -62 -329 -147q19 -2 193 -55q172 -52 181.5 -68t67.5 -78q58 -59 64 -89l1 -5v-6q0 -47 -89 -47q-105 0 -442.5 84t-414.5 84q-1 -3 -22 -3q-7 0 -20 7q10 -11 23 -25q58 -59 64 -89l1 -5v-6q0 -47 -89 -47q-105 0 -442.5 84 t-414.5 84q-1 -3 -22 -3q-23 0 -96 66q-84 75 -96 123z" />
<glyph unicode="&#xac;" d="M0 200v1100q0 200 200 200h1100q200 0 200 -200v-1100q0 -200 -200 -200h-1100q-200 0 -200 200zM25 200q1 -175 175 -175h1101q174 0 174 176v1099q0 175 -175 175h-1100q-174 0 -175 -175v-1100z" />
<glyph unicode="&#xad;" horiz-adv-x="1170" d="M-25 853v9q0 15 9 26q14 14 334 47q338 35 485 35q101 0 112 -16.5t67 -71.5t63 -88v-12q0 -32 -39 -50q-67 -31 -419 -54q-243 -16 -354 -16h-44q-1 -1 -22 -1q-23 0 -95 66q-84 75 -95 121z" />
<glyph unicode="&#xae;" horiz-adv-x="1216" d="M-25 1224q0 180 105 318q135 178 367 178q228 0 414 -174.5t222 -418.5q8 -53 8 -103q0 -179 -105 -317q-135 -177 -366 -177q-229 0 -414.5 174.5t-222.5 418.5q-8 52 -8 101zM127 1208q0 -39 6 -81q18 -120 58 -182q13 21 46 151q23 106 46 214q1 3 1 10q0 9 -2 22 q-1 10 -4 21q-6 25 -8 43q-2 14 -2 23v5q3 62 228 113q22 5 60 5q95 0 178 -28q0 1 -82.5 28.5t-189.5 27.5q-162 0 -257 -129q-78 -104 -78 -243zM335 772h1q115 -102 269 -102q138 0 229 94q-12 -4 -23 -4q-30 0 -43 26q-33 89 -277 216q-41 -14 -87 -18q3 0 3 -5 q0 -15 -20 -73q-33 -104 -44 -120q-8 -12 -8 -14zM447 1188q138 31 162 51q38 32 75 71l45 48l-102 28q-102 0 -129 -32q-5 -8 -31 -93zM647 1069q218 -90 257 -203q36 79 36 173q0 41 -7 84q-16 113 -39 150v1q-4 0 -66 -65q-89 -92 -181 -140z" />
<glyph unicode="&#xaf;" d="M0 200v1100q0 200 200 200h1100q200 0 200 -200v-1100q0 -200 -200 -200h-1100q-200 0 -200 200zM25 200q1 -175 175 -175h1101q174 0 174 176v1099q0 175 -175 175h-1100q-174 0 -175 -175v-1100z" />
<glyph unicode="&#xb0;" horiz-adv-x="841" d="M-25 1854q0 138 99 246q104 120 237 120q18 0 35 -2q130 -16 240 -124q98 -96 123 -198q3 -13 5 -26q2 -16 2 -31q0 -56 -31 -105q-44 -58 -89 -116q-77 -103 -253 -103q-19 0 -40 1q-98 7 -195 75q-99 73 -123 174q-4 11 -5 21l-1 7q-4 31 -4 61zM244 1866q0 -10 1 -18 l1 -8q8 -32 78 -32h5q72 0 72 42q0 6 -1 13q-1 5 -2 11q-14 54 -70 60q-9 1 -18 1q-61 0 -66 -58v-11z" />
<glyph unicode="&#xb1;" d="M0 200v1100q0 200 200 200h1100q200 0 200 -200v-1100q0 -200 -200 -200h-1100q-200 0 -200 200zM25 200q1 -175 175 -175h1101q174 0 174 176v1099q0 175 -175 175h-1100q-174 0 -175 -175v-1100z" />
<glyph unicode="&#xb2;" d="M0 200v1100q0 200 200 200h1100q200 0 200 -200v-1100q0 -200 -200 -200h-1100q-200 0 -200 200zM25 200q1 -175 175 -175h1101q174 0 174 176v1099q0 175 -175 175h-1100q-174 0 -175 -175v-1100z" />
<glyph unicode="&#xb3;" d="M0 200v1100q0 200 200 200h1100q200 0 200 -200v-1100q0 -200 -200 -200h-1100q-200 0 -200 200zM25 200q1 -175 175 -175h1101q174 0 174 176v1099q0 175 -175 175h-1100q-174 0 -175 -175v-1100z" />
<glyph unicode="&#xb4;" horiz-adv-x="581" d="M-31 1572q60 209 65 242q-7 10 -11 28q-2 10 -2 21q0 10 2 22q1 7 4 17q27 109 167 158q29 10 56 10q62 0 112 -50q8 -7 64 -82q30 -40 30 -92q0 -14 -2 -29q-2 -9 -4 -20q-7 -22 -16 -42q-109 -186 -395 -186q-20 0 -70 3z" />
<glyph unicode="&#xb5;" horiz-adv-x="1427" d="M-25 -114q0 20 5 43q72 307 125 545q17 86 44 208q20 97 101 448q21 90 106 90q51 0 108 -33q52 -33 59 -62v-5q0 -13 -13 -22q-18 -10 -86 -305q-46 -196 -49 -260.5t-5 -93.5q-1 -9 -1 -17q0 -21 4 -45l4 -22q12 -48 78 -48q97 0 229 54q113 45 113 67v12q0 54 98 354 q100 311 135 373q17 31 63 31q54 0 127.5 -46t80.5 -78l1 -5v-4q0 -19 -21 -28q-64 -24 -143 -449q-54 -298 -54 -441q0 -39 4 -66q2 -10 4 -19l3 -25q-77 -17 -131 -17q-137 0 -163 79q-2 7 -20 7q-78 0 -361 -130q-22 -11 -48 -11q-71 0 -89 21q-22 -181 -55 -241 q-28 -6 -52 -6q-61 0 -111 24q-70 31 -85 91q-3 6 -4 14t-1 18z" />
<glyph unicode="&#xb6;" d="M0 200v1100q0 200 200 200h1100q200 0 200 -200v-1100q0 -200 -200 -200h-1100q-200 0 -200 200zM25 200q1 -175 175 -175h1101q174 0 174 176v1099q0 175 -175 175h-1100q-174 0 -175 -175v-1100z" />
<glyph unicode="&#xb7;" horiz-adv-x="531" d="M-25 735q0 49 28 87l56 71l6 9q54 51 117 52q31 0 63 -6q132 -50 159 -155l1 -9q1 -9 1 -18q0 -27 -10 -60l-20 -42q-37 -55 -76 -87q-61 -46 -123 -47q-45 0 -83 18q-91 51 -112 138q-4 11 -5 21q-2 15 -2 28z" />
<glyph unicode="&#xb8;" horiz-adv-x="405" d="M8 -247q140 -75 200 -75q55 0 71 15q9 8 9 26q0 5 -1 10q-1 7 -2 13q-9 35 -50 50q-40 14 -97 14q-14 0 -59 -5l5 219h115l-10 -100q1 0 33 1q95 0 160 -45.5t85 -125.5q2 -10 4 -19q2 -13 2 -25q0 -55 -40 -92q-55 -52 -168 -52q-114 0 -219 38z" />
<glyph unicode="&#xb9;" d="M0 200v1100q0 200 200 200h1100q200 0 200 -200v-1100q0 -200 -200 -200h-1100q-200 0 -200 200zM25 200q1 -175 175 -175h1101q174 0 174 176v1099q0 175 -175 175h-1100q-174 0 -175 -175v-1100z" />
<glyph unicode="&#xba;" d="M0 200v1100q0 200 200 200h1100q200 0 200 -200v-1100q0 -200 -200 -200h-1100q-200 0 -200 200zM25 200q1 -175 175 -175h1101q174 0 174 176v1099q0 175 -175 175h-1100q-174 0 -175 -175v-1100z" />
<glyph unicode="&#xbb;" horiz-adv-x="2160" d="M-25 1097v10q0 47 89 47q105 0 442.5 -84t414.5 -84q1 3 22 3q7 0 19 -6q-11 11 -23 24q-56 59 -64 90v10q0 47 89 47q105 0 442.5 -84t414.5 -84q1 3 22 3q23 0 96 -66q83 -75 96 -123v-11q0 -18 -11 -29q-18 -17 -382 -169q-387 -161 -467 -161q-22 0 -35 14 q-7 11 -62.5 65.5t-63.5 87.5v12q0 34 39 50q126 62 329 147q-19 2 -193 55q-83 25 -129 42q64 -62 75 -103v-11q0 -18 -11 -29q-18 -17 -382 -169q-387 -161 -467 -161q-22 0 -35 14q-7 11 -62.5 65.5t-63.5 87.5v12q0 34 39 50q126 62 329 147q-19 2 -193 55 q-172 52 -181.5 68t-68.5 78q-56 59 -64 90z" />
<glyph unicode="&#xbc;" d="M0 200v1100q0 200 200 200h1100q200 0 200 -200v-1100q0 -200 -200 -200h-1100q-200 0 -200 200zM25 200q1 -175 175 -175h1101q174 0 174 176v1099q0 175 -175 175h-1100q-174 0 -175 -175v-1100z" />
<glyph unicode="&#xbd;" d="M0 200v1100q0 200 200 200h1100q200 0 200 -200v-1100q0 -200 -200 -200h-1100q-200 0 -200 200zM25 200q1 -175 175 -175h1101q174 0 174 176v1099q0 175 -175 175h-1100q-174 0 -175 -175v-1100z" />
<glyph unicode="&#xbe;" d="M0 200v1100q0 200 200 200h1100q200 0 200 -200v-1100q0 -200 -200 -200h-1100q-200 0 -200 200zM25 200q1 -175 175 -175h1101q174 0 174 176v1099q0 175 -175 175h-1100q-174 0 -175 -175v-1100z" />
<glyph unicode="&#xbf;" horiz-adv-x="1440" d="M-25 443q0 199 276 274q8 2 305 52q217 37 265.5 73.5t91.5 155.5q188 -88 205 -155l1 -13v-7q0 -64 -43 -122q-78 -52 -146 -87q-104 -89 -170 -107q-138 -20 -273 -40q-97 -18 -128 -58q-11 -15 -11 -34q0 -6 1 -14q0 -4 1 -7q15 -57 108 -87q107 -47 221 -47 q26 0 48 2q19 12 202 71q143 60 176 84q12 6 24 6q40 0 108 -73t78 -108v-8q0 -24 -24 -31q-102 -50 -208 -102q-200 -81 -407 -81q-24 0 -48 1q-192 8 -397 123q-192 106 -226 194q-12 32 -20 62q-5 19 -7 37q-3 24 -3 46zM669 1270q0 25 9 57l20 42q38 55 76 87 q61 46 124 47q45 0 83 -18q89 -51 112 -138q4 -11 5 -21q2 -14 2 -27q0 -49 -29 -88l-56 -71l-7 -9q-52 -51 -115 -52q-31 0 -63 6q-133 50 -159 155l-1 9q-1 10 -1 21z" />
<glyph unicode="&#xc0;" horiz-adv-x="1492" d="M-25 163q0 18 3 37q50 231 439 738q388 507 523 507h5q9 -1 16 -1q16 0 33 3q35 3 42 3q62 0 157 -85q38 -35 70 -163q25 -96 44 -224q28 -191 46 -457q14 -212 14 -321q0 -120 -24 -134q-41 -25 -119 -25q-100 0 -136 48q-11 18 -19 44q-2 12 -4 26q-5 32 -5 74 q0 26 1 39q-76 19 -182 19q-155 0 -308 -48q-130 -39 -188 -84l-136 -180q-236 23 -267 148q-3 6 -4 15q-1 10 -1 21zM634 572l324 20q63 39 63 52v1q-1 3 -14 117q-6 57 -12 95q-6 39 -11 59q-2 8 -2 12t2 4h1q-20 9 -39 9q-82 0 -181 -140q-56 -80 -131 -229zM875 1846 q0 52 30 92q56 75 64 82q50 50 112 50q27 0 56 -10q140 -49 167 -158q3 -10 4 -17q2 -12 2 -22q0 -11 -2 -21q-4 -18 -11 -28q5 -33 65 -242q-50 -3 -70 -3q-286 0 -395 186q-9 20 -16 42q-2 11 -4 20q-2 15 -2 29z" />
<glyph unicode="&#xc1;" horiz-adv-x="1492" d="M-25 163q0 18 3 37q50 231 439 738q388 507 523 507h5q9 -1 16 -1q16 0 33 3q35 3 42 3q62 0 157 -85q38 -35 70 -163q25 -96 44 -224q28 -191 46 -457q14 -212 14 -321q0 -120 -24 -134q-41 -25 -119 -25q-100 0 -136 48q-11 18 -19 44q-2 12 -4 26q-5 32 -5 74 q0 26 1 39q-76 19 -182 19q-155 0 -308 -48q-130 -39 -188 -84l-136 -180q-236 23 -267 148q-3 6 -4 15q-1 10 -1 21zM634 572l324 20q63 39 63 52v1q-1 3 -14 117q-6 57 -12 95q-6 39 -11 59q-2 8 -2 12t2 4h1q-20 9 -39 9q-82 0 -181 -140q-56 -80 -131 -229zM869 1572 q60 209 65 242q-7 10 -11 28q-2 10 -2 21q0 10 2 22q1 7 4 17q27 109 167 158q29 10 56 10q62 0 112 -50q8 -7 64 -82q30 -40 30 -92q0 -14 -2 -29q-2 -9 -4 -20q-7 -22 -16 -42q-109 -186 -395 -186q-20 0 -70 3z" />
<glyph unicode="&#xc2;" horiz-adv-x="1492" d="M-25 163q0 18 3 37q50 231 439 738q388 507 523 507h5q9 -1 16 -1q16 0 33 3q35 3 42 3q62 0 157 -85q38 -35 70 -163q25 -96 44 -224q28 -191 46 -457q14 -212 14 -321q0 -120 -24 -134q-41 -25 -119 -25q-100 0 -136 48q-11 18 -19 44q-2 12 -4 26q-5 32 -5 74 q0 26 1 39q-76 19 -182 19q-155 0 -308 -48q-130 -39 -188 -84l-136 -180q-236 23 -267 148q-3 6 -4 15q-1 10 -1 21zM574 1811q299 355 405 355h4q10 -1 20 -1q15 0 33 2q33 3 40 3q63 0 157 -85q98 -89 127 -121q102 -115 130 -232q6 -19 9 -45q-30 -68 -101.5 -119 t-135.5 -51q-32 0 -67 20l-5 24q-10 42 -55 115q-46 75 -52.5 78t-13.5 3q-80 0 -257 -224q-108 53 -168 127q-49 61 -62 119q-5 12 -8 32zM634 572l324 20q63 39 63 52v1q-1 3 -14 117q-6 57 -12 95q-6 39 -11 59q-2 8 -2 12t2 4h1q-20 9 -39 9q-82 0 -181 -140 q-56 -80 -131 -229z" />
<glyph unicode="&#xc3;" horiz-adv-x="1492" d="M-25 163q0 18 3 37q50 231 439 738q388 507 523 507h5q9 -1 16 -1q16 0 33 3q35 3 42 3q62 0 157 -85q38 -35 70 -163q25 -96 44 -224q28 -191 46 -457q14 -212 14 -321q0 -120 -24 -134q-41 -25 -119 -25q-100 0 -136 48q-11 18 -19 44q-2 12 -4 26q-5 32 -5 74 q0 26 1 39q-76 19 -182 19q-155 0 -308 -48q-130 -39 -188 -84l-136 -180q-236 23 -267 148q-3 6 -4 15q-1 10 -1 21zM583 1854q19 83 79.5 154.5t138.5 85.5q6 2 14 2q41 0 125 -49q92 -52 127 -94.5t50 -42.5q37 0 71 173q42 14 72 14q54 0 106 -34.5t107 -71.5 q2 -19 2 -33q0 -42 -14 -116q-33 -148 -113 -208q-76 -54 -146 -54q-74 0 -158.5 64.5t-107.5 64.5q-46 0 -113 -130q-112 55 -172 129q-48 61 -64 120q-2 12 -4 26zM634 572l324 20q63 39 63 52v1q-1 3 -14 117q-6 57 -12 95q-6 39 -11 59q-2 8 -2 12t2 4h1q-20 9 -39 9 q-82 0 -181 -140q-56 -80 -131 -229z" />
<glyph unicode="&#xc4;" horiz-adv-x="1492" d="M-25 163q0 18 3 37q50 231 439 738q388 507 523 507h5q9 -1 16 -1q16 0 33 3q35 3 42 3q62 0 157 -85q38 -35 70 -163q25 -96 44 -224q28 -191 46 -457q14 -212 14 -321q0 -120 -24 -134q-41 -25 -119 -25q-100 0 -136 48q-11 18 -19 44q-2 12 -4 26q-5 32 -5 74 q0 26 1 39q-76 19 -182 19q-155 0 -308 -48q-130 -39 -188 -84l-136 -180q-236 23 -267 148q-3 6 -4 15q-1 10 -1 21zM535 1784q0 49 29 88l56 71l7 10q53 50 115 51q31 0 63 -6q133 -50 159 -155l1 -9q1 -10 1 -21q0 -25 -9 -57l-20 -42q-38 -55 -76 -87q-61 -46 -124 -47 q-45 0 -82 18q-90 51 -114 139q-2 10 -4 19q-2 15 -2 28zM634 572l324 20q63 39 63 52v1q-1 3 -14 117q-6 57 -12 95q-6 39 -11 59q-2 8 -2 12t2 4h1q-20 9 -39 9q-82 0 -181 -140q-56 -80 -131 -229zM1074 1784q0 49 29 88l56 71l7 10q53 50 115 51q31 0 63 -6 q133 -50 159 -155l1 -9q1 -10 1 -21q0 -25 -9 -57l-20 -42q-38 -55 -76 -87q-61 -46 -124 -47q-45 0 -83 18q-89 51 -113 139q-2 10 -4 19q-2 15 -2 28z" />
<glyph unicode="&#xc5;" horiz-adv-x="1492" d="M-25 163q0 18 3 37q50 231 439 738q388 507 523 507h5q9 -1 16 -1q16 0 33 3q35 3 42 3q62 0 157 -85q38 -35 70 -163q25 -96 44 -224q28 -191 46 -457q14 -212 14 -321q0 -120 -24 -134q-41 -25 -119 -25q-100 0 -136 48q-11 18 -19 44q-2 12 -4 26q-5 32 -5 74 q0 26 1 39q-76 19 -182 19q-155 0 -308 -48q-130 -39 -188 -84l-136 -180q-236 23 -267 148q-3 6 -4 15q-1 10 -1 21zM634 572l324 20q63 39 63 52v1q-1 3 -14 117q-6 57 -12 95q-6 39 -11 59q-2 8 -2 12t2 4h1q-20 9 -39 9q-82 0 -181 -140q-56 -80 -131 -229zM636 1854 q0 138 99 246q104 120 237 120q18 0 35 -2q130 -16 240 -124q98 -96 123 -198q3 -13 5 -26q2 -16 2 -31q0 -56 -31 -105q-44 -58 -89 -116q-77 -103 -253 -103q-19 0 -40 1q-98 7 -195 75q-99 73 -123 174q-4 11 -5 21l-1 7q-4 31 -4 61zM905 1866q0 -10 1 -18l1 -8 q8 -32 78 -32h5q72 0 72 42q0 6 -1 13q-1 5 -2 11q-14 54 -70 60q-9 1 -18 1q-61 0 -66 -58v-11z" />
<glyph unicode="&#xc6;" horiz-adv-x="2298" d="M-25 164q0 18 3 37q50 231 439 738q388 507 523 507h5q9 -1 16 -1q16 0 33 3q35 3 42 3q62 0 157 -85q7 -7 10 -7q2 0 2 2q0 3 -4 12q26 80 79 97q101 31 334 71q264 45 390 45q85 0 101 -28q44 -61 61 -132q4 -12 5 -23q2 -14 2 -26q0 -47 -34 -73q-32 -24 -346 -59 q-273 -32 -273.5 -40t-19.5 -117l-2 -57q49 0 137 16q195 35 279 35q66 0 75.5 -17.5t65 -71t64.5 -87.5v-12q0 -33 -40 -51q-52 -22 -362 -120q-281 -86 -289 -86q-3 -4 -55 -269q413 196 569 196q39 0 60 -16q53 -38 100 -103.5t58 -113.5q3 -8 4 -14q1 -8 1 -13 q0 -24 -17 -38q-39 -32 -429 -163q-366 -123 -436 -123q-11 0 -17 2q-254 67 -279 166l-1 6q-1 9 -1 19q3 56 9 112q-43 7 -115 7q-155 0 -308 -48q-130 -39 -188 -84l-136 -180q-236 23 -267 148q-3 6 -4 15q-1 10 -1 21zM634 573l324 20q63 39 63 52v1q-1 3 -14 117 q-6 57 -12 95q-6 39 -11 59q-2 8 -2 12t2 4h1q-20 9 -39 9q-82 0 -181 -140q-56 -80 -131 -229z" />
<glyph unicode="&#xc7;" horiz-adv-x="1360" d="M-25 720q0 91 28 167q101 283 177 401q182 278 459 278q215 0 389 -101q165 -95 194 -212v-4q0 -81 -85 -146q-71 -56 -123 -56q-15 0 -37 8q-119 235 -294 235q-15 0 -31 -2q-94 -9 -217 -208q-105 -172 -158 -348q-3 -22 -3 -44q0 -30 5 -60q3 -20 8 -39 q28 -116 126 -210q62 -59 186 -59q126 0 210 57q63 44 63 99q0 8 -2 16q-1 7 -3 13q-1 9 -13 34l259 115q86 -92 114 -201q3 -14 5 -28q3 -18 3 -35q0 -30 -9 -54q-52 -147 -252 -245q-38 -19 -53 -25q30 -42 45 -104q4 -14 6 -27q4 -28 4 -56q0 -43 -9 -85 q-23 -85 -96 -126q-97 -88 -270 -88q-19 0 -41 1q-98 7 -193 75q-25 17 -30 53q-1 10 -1 22q0 11 1 23q7 72 62 101.5t120 29.5q25 -12 63 -12h5q72 0 72 42q0 6 -1 13q-1 5 -2 11q-14 52 -62 59h-13q-71 0 -134 13q-163 35 -287 190q-112 141 -159 329q-11 46 -18 89 q-8 53 -8 101z" />
<glyph unicode="&#xc8;" horiz-adv-x="1288" d="M-25 173q12 211 90 667q104 598 205 630q101 31 334 71q106 18 190 29q-255 12 -357 185q-9 20 -16 42q-2 11 -4 20q-2 15 -2 29q0 52 30 92q56 75 64 82q50 50 112 50q27 0 56 -10q140 -49 167 -158q3 -10 4 -17q2 -12 2 -22q0 -11 -2 -21q-4 -18 -11 -28q5 -32 62 -233 q55 5 95 5q85 0 101 -28q44 -61 61 -132q4 -12 5 -23q2 -14 2 -26q0 -47 -34 -73q-32 -24 -346 -59q-273 -32 -273.5 -40t-19.5 -117l-17 -83q64 26 152 42q195 35 279 35q66 0 75.5 -17.5t65 -71t64.5 -87.5v-12q0 -33 -40 -51q-52 -22 -362 -120q-281 -86 -289 -86 q-3 -4 -55 -269q413 196 569 196q39 0 60 -16q53 -38 100 -103.5t58 -113.5q3 -8 4 -14q1 -8 1 -13q0 -24 -17 -38q-39 -32 -429 -163q-366 -123 -436 -123q-11 0 -17 2q-254 67 -279 166l-1 6q-1 9 -1 19z" />
<glyph unicode="&#xc9;" horiz-adv-x="1288" d="M-25 173q12 211 90 667q104 598 205 630q101 31 334 71q264 45 390 45q85 0 101 -28q44 -61 61 -132q4 -12 5 -23q2 -14 2 -26q0 -47 -34 -73q-32 -24 -346 -59q-273 -32 -273.5 -40t-19.5 -117l-17 -83q64 26 152 42q195 35 279 35q66 0 75.5 -17.5t65 -71t64.5 -87.5 v-12q0 -33 -40 -51q-52 -22 -362 -120q-281 -86 -289 -86q-3 -4 -55 -269q413 196 569 196q39 0 60 -16q53 -38 100 -103.5t58 -113.5q3 -8 4 -14q1 -8 1 -13q0 -24 -17 -38q-39 -32 -429 -163q-366 -123 -436 -123q-11 0 -17 2q-254 67 -279 166l-1 6q-1 9 -1 19zM479 1572 q60 209 65 242q-7 10 -11 28q-2 10 -2 21q0 10 2 22q1 7 4 17q27 109 167 158q29 10 56 10q62 0 112 -50q8 -7 64 -82q30 -40 30 -92q0 -14 -2 -29q-2 -9 -4 -20q-7 -22 -16 -42q-109 -186 -395 -186q-20 0 -70 3z" />
<glyph unicode="&#xca;" horiz-adv-x="1288" d="M-25 173q12 211 90 667q104 598 205 630q101 31 334 71q139 24 213 32q-7 30 -52 103q-46 75 -52.5 78t-13.5 3q-80 0 -257 -224q-108 53 -168 127q-49 61 -62 119q-5 12 -8 32q299 355 405 355h4q10 -1 20 -1q15 0 33 2q33 3 40 3q63 0 157 -85q98 -89 127 -121 q102 -115 130 -232q6 -19 9 -45q-30 -68 -66 -101q16 0 32 -28q44 -61 61 -132q4 -12 5 -23q2 -14 2 -26q0 -47 -34 -73q-32 -24 -346 -59q-273 -32 -273.5 -40t-19.5 -117l-2 -57q49 0 137 16q195 35 279 35q66 0 75.5 -17.5t65 -71t64.5 -87.5v-12q0 -33 -40 -51 q-52 -22 -362 -120q-281 -86 -289 -86q-3 -4 -55 -269q413 196 569 196q39 0 60 -16q53 -38 100 -103.5t58 -113.5q3 -8 4 -14q1 -8 1 -13q0 -24 -17 -38q-39 -32 -429 -163q-366 -123 -436 -123q-11 0 -17 2q-254 67 -279 166l-1 6q-1 9 -1 19z" />
<glyph unicode="&#xcb;" horiz-adv-x="1288" d="M-25 173q12 211 90 667q104 598 205 630q101 31 334 71q238 41 364 45q-18 4 -35 12q-89 51 -113 139q-2 10 -4 19q-2 15 -2 28q0 49 29 88l56 71l7 10q53 50 115 51q31 0 63 -6q133 -50 159 -155l1 -9q1 -10 1 -21q0 -25 -9 -57l-20 -42q-38 -55 -76 -87 q-47 -36 -96 -44q40 -7 51 -25q44 -61 61 -132q4 -12 5 -23q2 -14 2 -26q0 -47 -34 -73q-32 -24 -346 -59q-273 -32 -273.5 -40t-19.5 -117l-17 -83q64 26 152 42q195 35 279 35q66 0 75.5 -17.5t65 -71t64.5 -87.5v-12q0 -33 -40 -51q-52 -22 -362 -120q-281 -86 -289 -86 q-3 -4 -55 -269q413 196 569 196q39 0 60 -16q53 -38 100 -103.5t58 -113.5q3 -8 4 -14q1 -8 1 -13q0 -24 -17 -38q-39 -32 -429 -163q-366 -123 -436 -123q-11 0 -17 2q-254 67 -279 166l-1 6q-1 9 -1 19zM275 1784q0 49 29 88l56 71l7 10q53 50 115 51q31 0 63 -6 q133 -50 159 -155l1 -9q1 -10 1 -21q0 -25 -9 -57l-20 -42q-38 -55 -76 -87q-61 -46 -124 -47q-45 0 -82 18q-90 51 -114 139q-2 10 -4 19q-2 15 -2 28z" />
<glyph unicode="&#xcc;" horiz-adv-x="1225" d="M-25 63q0 46 4 83q11 163 90 169h103q52 0 71.5 21.5t91.5 329.5q71 307 93 481q-3 -4 -57 -4q-109 0 -355 -27q19 124 38 223q43 150 177 156q116 5 299 5q182 0 443 -5q76 -77 113 -201q7 -23 11 -42q2 -19 3 -33v-8q0 -41 -28 -57q-75 -36 -251 -36h-35 q-176 -686 -177 -783h8q62 0 252 33l7 -31q10 -46 11 -85q1 -9 1 -19t-1 -19q-12 -148 -142 -160q-160 -15 -767 -77l-2 37q-1 26 -1 49zM465 1846q0 52 30 92q56 75 64 82q50 50 112 50q27 0 56 -10q140 -49 167 -158q3 -10 4 -17q2 -12 2 -22q0 -11 -2 -21q-4 -18 -11 -28 q5 -33 65 -242q-50 -3 -70 -3q-286 0 -395 186q-9 20 -16 42q-2 11 -4 20q-2 15 -2 29z" />
<glyph unicode="&#xcd;" horiz-adv-x="1225" d="M-25 63q0 46 4 83q11 163 90 169h103q52 0 71.5 21.5t91.5 329.5q71 307 93 481q-3 -4 -57 -4q-109 0 -355 -27q19 124 38 223q43 150 177 156q116 5 299 5q182 0 443 -5q76 -77 113 -201q7 -23 11 -42q2 -19 3 -33v-8q0 -41 -28 -57q-75 -36 -251 -36h-35 q-176 -686 -177 -783h8q62 0 252 33l7 -31q10 -46 11 -85q1 -9 1 -19t-1 -19q-12 -148 -142 -160q-160 -15 -767 -77l-2 37q-1 26 -1 49zM459 1572q60 209 65 242q-7 10 -11 28q-2 10 -2 21q0 10 2 22q1 7 4 17q27 109 167 158q29 10 56 10q62 0 112 -50q8 -7 64 -82 q30 -40 30 -92q0 -14 -2 -29q-2 -9 -4 -20q-7 -22 -16 -42q-109 -186 -395 -186q-20 0 -70 3z" />
<glyph unicode="&#xce;" horiz-adv-x="1225" d="M-25 63q0 46 4 83q11 163 90 169h103q52 0 71.5 21.5t91.5 329.5q71 307 93 481q-3 -4 -57 -4q-109 0 -355 -27q19 124 38 223q43 150 177 156q116 5 299 5q182 0 443 -5q76 -77 113 -201q7 -23 11 -42q2 -19 3 -33v-8q0 -41 -28 -57q-75 -36 -251 -36h-35 q-176 -686 -177 -783h8q62 0 252 33l7 -31q10 -46 11 -85q1 -9 1 -19t-1 -19q-12 -148 -142 -160q-160 -15 -767 -77l-2 37q-1 26 -1 49zM204 1811q299 355 405 355h4q10 -1 20 -1q15 0 33 2q33 3 40 3q63 0 157 -85q98 -89 127 -121q102 -115 130 -232q6 -19 9 -45 q-30 -68 -101.5 -119t-135.5 -51q-32 0 -67 20l-5 24q-10 42 -55 115q-46 75 -52.5 78t-13.5 3q-80 0 -257 -224q-108 53 -168 127q-49 61 -62 119q-5 12 -8 32z" />
<glyph unicode="&#xcf;" horiz-adv-x="1225" d="M-25 63q0 46 4 83q11 163 90 169h103q52 0 71.5 21.5t91.5 329.5q71 307 93 481q-3 -4 -57 -4q-109 0 -355 -27q19 124 38 223q43 150 177 156q116 5 299 5q182 0 443 -5q76 -77 113 -201q7 -23 11 -42q2 -19 3 -33v-8q0 -41 -28 -57q-75 -36 -251 -36h-35 q-176 -686 -177 -783h8q62 0 252 33l7 -31q10 -46 11 -85q1 -9 1 -19t-1 -19q-12 -148 -142 -160q-160 -15 -767 -77l-2 37q-1 26 -1 49zM195 1784q0 49 29 88l56 71l7 10q53 50 115 51q31 0 63 -6q133 -50 159 -155l1 -9q1 -10 1 -21q0 -25 -9 -57l-20 -42q-38 -55 -76 -87 q-61 -46 -124 -47q-45 0 -82 18q-90 51 -114 139q-2 10 -4 19q-2 15 -2 28zM734 1784q0 49 29 88l56 71l7 10q53 50 115 51q31 0 63 -6q133 -50 159 -155l1 -9q1 -10 1 -21q0 -25 -9 -57l-20 -42q-38 -55 -76 -87q-61 -46 -124 -47q-45 0 -83 18q-89 51 -113 139 q-2 10 -4 19q-2 15 -2 28z" />
<glyph unicode="&#xd0;" horiz-adv-x="1694" d="M-25 973v7q0 14 9 25q15 13 251 38q43 276 56 276q30 78 268 138q161 43 225 43q9 0 17 -1q329 -34 500 -109q214 -96 256 -267q6 -16 8 -33q4 -27 4 -55q0 -32 -5 -66q-48 -323 -374 -665q-100 -105 -266 -176q-155 -65 -450 -134q-60 -14 -110 -14q-191 0 -234 178 q-6 19 -8 37q-4 23 -4 46q0 9 1 19q46 319 75 518h-26q-23 0 -96 66q-84 75 -96 122zM506 414l3 -13q7 -28 60 -28q20 0 45 4q61 10 314 223q140 117 240 262q82 121 82 173q0 3 -1 5l-1 9q-36 103 -132 144q-54 22 -110 22q-15 0 -30 -2q-205 -20 -216 -23l-136 -110 q100 7 180 7q101 0 111.5 -16.5t65.5 -71t64 -87.5v-12q0 -33 -40 -50q-64 -32 -419 -55l-21 -1q-22 -140 -59 -380z" />
<glyph unicode="&#xd1;" horiz-adv-x="1582" d="M-25 176q49 309 97 615q116 618 223 633q12 1 51.5 24.5t69.5 23.5q36 0 68 -30q78 -71 232 -377q130 -252 231 -498q16 86 80 453q83 479 132 486q20 3 42 3q53 0 120 -18q121 -31 136 -93v-7q0 -64 -149 -646q-141 -537 -141 -608v-4q5 -6 5 -11l1 -2v-7q0 -22 -29 -42 q-31 -22 -79 -22q-117 0 -206 134q-20 30 -216 405q-144 272 -171 272q-25 -2 -37 -36q-10 -30 -17 -64q-8 -21 -58 -363q-43 -301 -43 -363q0 -6 1 -10v-7q0 -37 -75 -37q-82 0 -155 42q-88 52 -111 141zM483 1854q19 83 79.5 154.5t138.5 85.5q6 2 14 2q41 0 125 -49 q92 -52 127 -94.5t50 -42.5q37 0 71 173q42 14 72 14q54 0 106 -34.5t107 -71.5q2 -19 2 -33q0 -42 -14 -116q-33 -148 -113 -208q-76 -54 -146 -54q-74 0 -158.5 64.5t-107.5 64.5q-46 0 -113 -130q-112 55 -172 129q-48 61 -64 120q-2 12 -4 26z" />
<glyph unicode="&#xd2;" horiz-adv-x="1646" d="M-25 604q0 150 50 300q88 265 290 431q215 178 489 178q236 0 439.5 -146.5t262.5 -380.5q5 -23 9 -48q6 -43 6 -90q0 -246 -181 -590q-71 -134 -306 -213q-194 -65 -398 -65q-226 0 -382 79q-197 101 -250 310q-12 48 -19 96q-10 70 -10 139zM322 640q0 -47 8 -97 q5 -33 14 -68q25 -100 135 -153q91 -44 203 -44q195 0 382 259q150 207 150 376q0 28 -4 54q-3 17 -7 33q-24 98 -144 157q-99 48 -209 48q-267 0 -419 -224q-109 -159 -109 -341zM675 1846q0 52 30 92q56 75 64 82q50 50 112 50q27 0 56 -10q140 -49 167 -158q3 -10 4 -17 q2 -12 2 -22q0 -11 -2 -21q-4 -18 -11 -28q5 -33 65 -242q-50 -3 -70 -3q-286 0 -395 186q-9 20 -16 42q-2 11 -4 20q-2 15 -2 29z" />
<glyph unicode="&#xd3;" horiz-adv-x="1646" d="M-25 604q0 150 50 300q88 265 290 431q215 178 489 178q236 0 439.5 -146.5t262.5 -380.5q5 -23 9 -48q6 -43 6 -90q0 -246 -181 -590q-71 -134 -306 -213q-194 -65 -398 -65q-226 0 -382 79q-197 101 -250 310q-12 48 -19 96q-10 70 -10 139zM322 640q0 -47 8 -97 q5 -33 14 -68q25 -100 135 -153q91 -44 203 -44q195 0 382 259q150 207 150 376q0 28 -4 54q-3 17 -7 33q-24 98 -144 157q-99 48 -209 48q-267 0 -419 -224q-109 -159 -109 -341zM669 1572q60 209 65 242q-7 10 -11 28q-2 10 -2 21q0 10 2 22q1 7 4 17q27 109 167 158 q29 10 56 10q62 0 112 -50q8 -7 64 -82q30 -40 30 -92q0 -14 -2 -29q-2 -9 -4 -20q-7 -22 -16 -42q-109 -186 -395 -186q-20 0 -70 3z" />
<glyph unicode="&#xd4;" horiz-adv-x="1646" d="M-25 604q0 150 50 300q88 265 290 431q215 178 489 178q236 0 439.5 -146.5t262.5 -380.5q5 -23 9 -48q6 -43 6 -90q0 -246 -181 -590q-71 -134 -306 -213q-194 -65 -398 -65q-226 0 -382 79q-197 101 -250 310q-12 48 -19 96q-10 70 -10 139zM322 640q0 -47 8 -97 q5 -33 14 -68q25 -100 135 -153q91 -44 203 -44q195 0 382 259q150 207 150 376q0 28 -4 54q-3 17 -7 33q-24 98 -144 157q-99 48 -209 48q-267 0 -419 -224q-109 -159 -109 -341zM474 1811q299 355 405 355h4q10 -1 20 -1q15 0 33 2q33 3 40 3q63 0 157 -85 q98 -89 127 -121q102 -115 130 -232q6 -19 9 -45q-30 -68 -101.5 -119t-135.5 -51q-32 0 -67 20l-5 24q-10 42 -55 115q-46 75 -52.5 78t-13.5 3q-80 0 -257 -224q-108 53 -168 127q-49 61 -62 119q-5 12 -8 32z" />
<glyph unicode="&#xd5;" horiz-adv-x="1646" d="M-25 604q0 150 50 300q88 265 290 431q215 178 489 178q236 0 439.5 -146.5t262.5 -380.5q5 -23 9 -48q6 -43 6 -90q0 -246 -181 -590q-71 -134 -306 -213q-194 -65 -398 -65q-226 0 -382 79q-197 101 -250 310q-12 48 -19 96q-10 70 -10 139zM322 640q0 -47 8 -97 q5 -33 14 -68q25 -100 135 -153q91 -44 203 -44q195 0 382 259q150 207 150 376q0 28 -4 54q-3 17 -7 33q-24 98 -144 157q-99 48 -209 48q-267 0 -419 -224q-109 -159 -109 -341zM483 1854q19 83 79.5 154.5t138.5 85.5q6 2 14 2q41 0 125 -49q92 -52 127 -94.5t50 -42.5 q37 0 71 173q42 14 72 14q54 0 106 -34.5t107 -71.5q2 -19 2 -33q0 -42 -14 -116q-33 -148 -113 -208q-76 -54 -146 -54q-74 0 -158.5 64.5t-107.5 64.5q-46 0 -113 -130q-112 55 -172 129q-48 61 -64 120q-2 12 -4 26z" />
<glyph unicode="&#xd6;" horiz-adv-x="1646" d="M-25 604q0 150 50 300q88 265 290 431q215 178 489 178q236 0 439.5 -146.5t262.5 -380.5q5 -23 9 -48q6 -43 6 -90q0 -246 -181 -590q-71 -134 -306 -213q-194 -65 -398 -65q-226 0 -382 79q-197 101 -250 310q-12 48 -19 96q-10 70 -10 139zM322 640q0 -47 8 -97 q5 -33 14 -68q25 -100 135 -153q91 -44 203 -44q195 0 382 259q150 207 150 376q0 28 -4 54q-3 17 -7 33q-24 98 -144 157q-99 48 -209 48q-267 0 -419 -224q-109 -159 -109 -341zM435 1784q0 49 29 88l56 71l7 10q53 50 115 51q31 0 63 -6q133 -50 159 -155l1 -9 q1 -10 1 -21q0 -25 -9 -57l-20 -42q-38 -55 -76 -87q-61 -46 -124 -47q-45 0 -82 18q-90 51 -114 139q-2 10 -4 19q-2 15 -2 28zM974 1784q0 49 29 88l56 71l7 10q53 50 115 51q31 0 63 -6q133 -50 159 -155l1 -9q1 -10 1 -21q0 -25 -9 -57l-20 -42q-38 -55 -76 -87 q-61 -46 -124 -47q-45 0 -83 18q-89 51 -113 139q-2 10 -4 19q-2 15 -2 28z" />
<glyph unicode="&#xd7;" horiz-adv-x="1272" d="M-25 364q0 9 3 19q20 47 222 282q37 43 49 62q15 24 15 60q0 13 -2 26q-2 11 -5 25q-11 42 -30 66q-70 78 -146 164q-6 39 -11 62l-2 5v7q0 37 47 97q58 71 118 71q24 0 44 -12q98 -65 116 -136q65 -88 135 -181q37 13 174 147q150 148 182 148q3 0 28 2h44 q165 0 189 -89l1 -10q1 -9 1 -19q0 -22 -7 -48q-30 -96 -323 -344q-71 -19 -71 -43v-4q21 -63 26 -71q8 -17 38 -54q61 -122 126 -164q19 -12 25 -37l1 -6q1 -7 1 -13q0 -48 -52 -113q-66 -83 -125 -83q-17 0 -32 7q-62 38 -191 184q-21 48 -63 131q-10 -1 -24 -3 q-219 -217 -247 -284q-13 -23 -46 -23q-47 0 -120 52t-86 101l-1 5q-1 8 -1 14z" />
<glyph unicode="&#xd8;" d="M-21 611q0 150 50 300q88 265 290 431q215 178 489 178q147 0 270 -52q29 13 98 13q139 0 162 -89l1 -9q1 -8 1 -16q0 -23 -9 -47q-2 -10 -3 -13q133 -123 182 -313q5 -24 9 -49q6 -43 6 -90q0 -246 -181 -590q-71 -134 -306 -213q-194 -65 -398 -65q-185 0 -302 44 q-7 -11 -14 -29q-7 -25 -46 -25q-47 0 -120.5 52t-86.5 101l-1 5q-1 7 -1 12q0 12 4 22q5 12 18 33q-57 69 -83 174q-12 48 -19 96q-10 70 -10 139zM326 647q0 -47 8 -97q240 338 247 352q52 36 247 281l36 29q-277 -10 -429 -224q-109 -159 -109 -341zM522 296 q67 -11 164 -11q195 0 382 259q150 207 150 376q0 28 -4 54q-3 17 -7 33q-13 55 -34 75q-55 -69 -168 -197q-293 -332 -378 -481l-104 -106z" />
<glyph unicode="&#xd9;" horiz-adv-x="1615" d="M-25 385q0 99 85 486q25 121 126 560q28 108 128 108q61 0 131 -40q61 -40 70 -74v-7q0 -14 -13 -23q-24 -14 -111 -384q-68 -293 -68 -449q0 -41 5 -72q3 -15 6 -27q16 -66 103 -66q123 0 288 68q146 59 146 90v1l-1 4v8q0 66 123 442q126 388 168 466q21 35 74 35 q65 0 154.5 -56t98.5 -94l2 -7v-4q0 -21 -24 -31q-82 -31 -181 -564q-68 -373 -68 -552q0 -49 5 -82q2 -14 4 -24l7 -27q-93 -21 -160 -21q-166 0 -197 95q-4 12 -32 12q-99 0 -453 -163q-26 -13 -57 -13q-100 0 -209 107t-141 232q-4 16 -6 30q-2 10 -2 20q-1 6 -1 16z M615 1846q0 52 30 92q56 75 64 82q50 50 112 50q27 0 56 -10q140 -49 167 -158q3 -10 4 -17q2 -12 2 -22q0 -11 -2 -21q-4 -18 -11 -28q5 -33 65 -242q-50 -3 -70 -3q-286 0 -395 186q-9 20 -16 42q-2 11 -4 20q-2 15 -2 29z" />
<glyph unicode="&#xda;" horiz-adv-x="1615" d="M-25 385q0 99 85 486q25 121 126 560q28 108 128 108q61 0 131 -40q61 -40 70 -74v-7q0 -14 -13 -23q-24 -14 -111 -384q-68 -293 -68 -449q0 -41 5 -72q3 -15 6 -27q16 -66 103 -66q123 0 288 68q146 59 146 90v1l-1 4v8q0 66 123 442q126 388 168 466q21 35 74 35 q65 0 154.5 -56t98.5 -94l2 -7v-4q0 -21 -24 -31q-82 -31 -181 -564q-68 -373 -68 -552q0 -49 5 -82q2 -14 4 -24l7 -27q-93 -21 -160 -21q-166 0 -197 95q-4 12 -32 12q-99 0 -453 -163q-26 -13 -57 -13q-100 0 -209 107t-141 232q-4 16 -6 30q-2 10 -2 20q-1 6 -1 16z M679 1572q60 209 65 242q-7 10 -11 28q-2 10 -2 21q0 10 2 22q1 7 4 17q27 109 167 158q29 10 56 10q62 0 112 -50q8 -7 64 -82q30 -40 30 -92q0 -14 -2 -29q-2 -9 -4 -20q-7 -22 -16 -42q-109 -186 -395 -186q-20 0 -70 3z" />
<glyph unicode="&#xdb;" horiz-adv-x="1615" d="M-25 385q0 99 85 486q25 121 126 560q28 108 128 108q61 0 131 -40q61 -40 70 -74v-7q0 -14 -13 -23q-24 -14 -111 -384q-68 -293 -68 -449q0 -41 5 -72q3 -15 6 -27q16 -66 103 -66q123 0 288 68q146 59 146 90v1l-1 4v8q0 66 123 442q126 388 168 466q21 35 74 35 q65 0 154.5 -56t98.5 -94l2 -7v-4q0 -21 -24 -31q-82 -31 -181 -564q-68 -373 -68 -552q0 -49 5 -82q2 -14 4 -24l7 -27q-93 -21 -160 -21q-166 0 -197 95q-4 12 -32 12q-99 0 -453 -163q-26 -13 -57 -13q-100 0 -209 107t-141 232q-4 16 -6 30q-2 10 -2 20q-1 6 -1 16z M404 1811q299 355 405 355h4q10 -1 20 -1q15 0 33 2q33 3 40 3q63 0 157 -85q98 -89 127 -121q102 -115 130 -232q6 -19 9 -45q-30 -68 -101.5 -119t-135.5 -51q-32 0 -67 20l-5 24q-10 42 -55 115q-46 75 -52.5 78t-13.5 3q-80 0 -257 -224q-108 53 -168 127 q-49 61 -62 119q-5 12 -8 32z" />
<glyph unicode="&#xdc;" horiz-adv-x="1615" d="M-25 385q0 99 85 486q25 121 126 560q28 108 128 108q61 0 131 -40q61 -40 70 -74v-7q0 -14 -13 -23q-24 -14 -111 -384q-68 -293 -68 -449q0 -41 5 -72q3 -15 6 -27q16 -66 103 -66q123 0 288 68q146 59 146 90v1l-1 4v8q0 66 123 442q126 388 168 466q21 35 74 35 q65 0 154.5 -56t98.5 -94l2 -7v-4q0 -21 -24 -31q-82 -31 -181 -564q-68 -373 -68 -552q0 -49 5 -82q2 -14 4 -24l7 -27q-93 -21 -160 -21q-166 0 -197 95q-4 12 -32 12q-99 0 -453 -163q-26 -13 -57 -13q-100 0 -209 107t-141 232q-4 16 -6 30q-2 10 -2 20q-1 6 -1 16z M395 1784q0 49 29 88l56 71l7 10q53 50 115 51q31 0 63 -6q133 -50 159 -155l1 -9q1 -10 1 -21q0 -25 -9 -57l-20 -42q-38 -55 -76 -87q-61 -46 -124 -47q-45 0 -82 18q-90 51 -114 139q-2 10 -4 19q-2 15 -2 28zM934 1784q0 49 29 88l56 71l7 10q53 50 115 51q31 0 63 -6 q133 -50 159 -155l1 -9q1 -10 1 -21q0 -25 -9 -57l-20 -42q-38 -55 -76 -87q-61 -46 -124 -47q-45 0 -83 18q-89 51 -113 139q-2 10 -4 19q-2 15 -2 28z" />
<glyph unicode="&#xdd;" horiz-adv-x="1376" d="M-25 1318q0 50 34 91q48 48 111 48q66 0 84 -51q15 -47 184 -250q133 -161 170 -195q51 143 238 392q162 217 273 217q90 0 161 -111q12 -17 16 -35q3 -6 4 -14q1 -9 1 -18q0 -53 -41 -113q-53 -74 -145 -132q-130 -81 -373 -524q-217 -396 -294 -628q-12 -36 -51 -36 q-55 0 -135 82t-93 131l-1 6v6q0 26 29 31q26 5 129 250q45 106 101 252q5 18 5 31q0 5 -1 10v2l3 -1q-38 13 -201 207q-177 207 -203 308q-2 10 -3 19q-2 13 -2 25zM479 1572q60 209 65 242q-7 10 -11 28q-2 10 -2 21q0 10 2 22q1 7 4 17q27 109 167 158q29 10 56 10 q62 0 112 -50q8 -7 64 -82q30 -40 30 -92q0 -14 -2 -29q-2 -9 -4 -20q-7 -22 -16 -42q-109 -186 -395 -186q-20 0 -70 3z" />
<glyph unicode="&#xde;" horiz-adv-x="1450" d="M-20 117q16 73 54.5 313.5t84.5 455.5q151 630 205 644q72 17 126 17q129 0 150 -87l-34 -106h75q185 0 347 -57q223 -79 317 -242q9 -16 14 -34q3 -7 4 -14q2 -12 2 -24q0 -109 -142 -263q-154 -168 -391 -301q-253 -142 -459 -162q-5 -1 -30 -3q-16 -85 -16 -125 q-29 -51 -60 -99q-31 -50 -92 -50q-13 0 -25 2q-97 15 -130 135zM396 595q0 3 6 3q59 0 185 46.5t177 89.5q78 64 153 143q94 99 94 137v7h-1q-28 41 -228 41q-216 0 -278 -74q-14 -19 -66 -193q-42 -149 -42 -192v-8z" />
<glyph unicode="&#xdf;" horiz-adv-x="1477" d="M-25 117q129 547 157.5 735t30.5 189q16 100 49 232q43 151 287 196q191 36 399 36q143 0 191 -19q147 -53 175 -157q2 -9 3 -19q2 -14 2 -29q0 -146 -189 -326q59 -39 135 -160q86 -131 130 -288l2 -5q3 -7 4 -15q1 -11 1 -21q0 -155 -332 -309q-207 -96 -415 -145 q-108 67 -118 132q-1 7 -1 13q0 73 116 143q42 10 81 25q49 22 97 46q58 27 114 89q57 63 57 114q0 6 -1 11q-1 4 -2 10q-11 47 -86 77q-31 12 -78 12q-70 0 -173 -27q-107 72 -117 140q-1 8 -1 15q0 77 114 153q82 19 141 45q155 72 155 198v5l-1 8q-7 27 -97 27 q-121 0 -264 -51q-39 -31 -40 -88q-16 -99 -27 -115q-44 -183 -91 -369q-101 -408 -101 -490v-6q-29 -51 -60 -99q-31 -50 -92 -50q-13 0 -25 2q-97 15 -130 135z" />
<glyph unicode="&#xe0;" horiz-adv-x="1224" d="M-25 130q0 15 2 31q41 185 352 591q312 408 423 408h4q8 -1 13 -1q11 0 25 3q29 2 35 2q52 0 129 -69q31 -29 57 -133q20 -77 36 -179q22 -153 36 -366q12 -169 12 -257q0 -99 -23 -110q-33 -21 -97 -21q-83 0 -113 40q-9 15 -16 38q-1 9 -3 19q-4 27 -4 60q0 21 1 29 q-57 14 -141 14q-123 0 -244 -38q-104 -31 -149 -66l-110 -146q-195 19 -222 123q-1 4 -2 10q-1 9 -1 18zM515 461l250 16q47 30 47 38v1q-1 2 -11 93q-5 46 -10 76q-5 31 -9 48v5q0 5 2 5q-14 6 -27 6q-63 0 -141 -110q-44 -64 -101 -178zM695 1477q0 42 25 75q44 60 51 66 q42 42 94 42q21 0 46 -7q115 -41 137 -131q3 -9 3 -14q2 -8 2 -18q0 -9 -2 -18q-3 -13 -8 -21q5 -28 53 -197q-46 -3 -62 -3q-232 0 -321 152q-7 16 -12 34q-3 9 -4 16q-2 12 -2 24z" />
<glyph unicode="&#xe1;" horiz-adv-x="1224" d="M-25 130q0 15 2 31q41 185 352 591q312 408 423 408h4q8 -1 13 -1q11 0 25 3q29 2 35 2q52 0 129 -69q31 -29 57 -133q20 -77 36 -179q22 -153 36 -366q12 -169 12 -257q0 -99 -23 -110q-33 -21 -97 -21q-83 0 -113 40q-9 15 -16 38q-1 9 -3 19q-4 27 -4 60q0 21 1 29 q-57 14 -141 14q-123 0 -244 -38q-104 -31 -149 -66l-110 -146q-195 19 -222 123q-1 4 -2 10q-1 9 -1 18zM515 461l250 16q47 30 47 38v1q-1 2 -11 93q-5 46 -10 76q-5 31 -9 48v5q0 5 2 5q-14 6 -27 6q-63 0 -141 -110q-44 -64 -101 -178zM689 1254q48 167 53 196 q-6 9 -9 23q-1 9 -1 17q0 9 1 18q1 7 4 14q22 90 137 130q23 8 46 8q52 0 93 -41q7 -6 52 -67q25 -33 25 -75q0 -12 -2 -24q-1 -7 -4 -16q-5 -18 -12 -34q-89 -152 -321 -152q-16 0 -62 3z" />
<glyph unicode="&#xe2;" horiz-adv-x="1197" d="M-25 130q0 15 2 31q41 185 352 591q312 408 423 408h4q8 -1 13 -1q11 0 25 3q29 2 35 2q52 0 129 -69q31 -29 57 -133q20 -77 36 -179q22 -153 36 -366q12 -169 12 -257q0 -99 -23 -110q-33 -21 -97 -21q-83 0 -113 40q-9 15 -16 38q-1 9 -3 19q-4 27 -4 60q0 21 1 29 q-57 14 -141 14q-123 0 -244 -38q-104 -31 -149 -66l-110 -146q-195 19 -222 123q-1 4 -2 10q-1 9 -1 18zM454 1449q242 288 329 288h5q8 -1 14 -1q12 0 26 2q27 2 33 2q52 0 127 -67q82 -74 104 -100q81 -92 105 -187q5 -15 7 -37q-25 -56 -83 -97.5t-111 -41.5 q-27 0 -59 16l-4 22q-8 33 -43 91q-37 59 -41 61t-8 2q-61 0 -204 -182q-91 46 -140 106q-40 49 -50 96q-4 10 -7 27zM515 461l250 16q47 30 47 38v1q-1 2 -11 93q-5 46 -10 76q-5 31 -9 48v5q0 5 2 5q-14 6 -27 6q-63 0 -141 -110q-44 -64 -101 -178z" />
<glyph unicode="&#xe3;" horiz-adv-x="1202" d="M-25 130q0 15 2 31q41 185 352 591q312 408 423 408h4q8 -1 13 -1q11 0 25 3q29 2 35 2q52 0 129 -69q31 -29 57 -133q20 -77 36 -179q22 -153 36 -366q12 -169 12 -257q0 -99 -23 -110q-33 -21 -97 -21q-83 0 -113 40q-9 15 -16 38q-1 9 -3 19q-4 27 -4 60q0 21 1 29 q-57 14 -141 14q-123 0 -244 -38q-104 -31 -149 -66l-110 -146q-195 19 -222 123q-1 4 -2 10q-1 9 -1 18zM461 1483q16 68 65 126.5t113 69.5q5 2 13 2q34 0 101 -39q76 -43 103.5 -76.5t37.5 -33.5q25 0 51 137q38 13 63 13q45 0 87.5 -28.5t87.5 -58.5q2 -17 2 -29 q0 -33 -11 -93q-27 -120 -92 -169q-63 -44 -120 -44q-62 0 -129.5 51.5t-83.5 51.5q-34 0 -88 -106q-96 47 -144 107q-39 50 -52 97q-1 9 -4 22zM515 461l250 16q47 30 47 38v1q-1 2 -11 93q-5 46 -10 76q-5 31 -9 48v5q0 5 2 5q-14 6 -27 6q-63 0 -141 -110 q-44 -64 -101 -178z" />
<glyph unicode="&#xe4;" horiz-adv-x="1196" d="M-25 130q0 15 2 31q41 185 352 591q312 408 423 408h4q8 -1 13 -1q11 0 25 3q29 2 35 2q52 0 129 -69q31 -29 57 -133q20 -77 36 -179q22 -153 36 -366q12 -169 12 -257q0 -99 -23 -110q-33 -21 -97 -21q-83 0 -113 40q-9 15 -16 38q-1 9 -3 19q-4 27 -4 60q0 21 1 29 q-57 14 -141 14q-123 0 -244 -38q-104 -31 -149 -66l-110 -146q-195 19 -222 123q-1 4 -2 10q-1 9 -1 18zM423 1427q0 40 24 73l45 56l6 8q45 42 96 43q25 0 52 -5q109 -41 130 -127l1 -7q1 -9 1 -18q0 -20 -8 -46l-16 -34q-31 -45 -61 -71q-51 -38 -103 -39q-38 0 -70 15 q-72 42 -92 113q-2 9 -3 17q-2 12 -2 22zM515 461l250 16q47 30 47 38v1q-1 2 -11 93q-5 46 -10 76q-5 31 -9 48v5q0 5 2 5q-14 6 -27 6q-63 0 -141 -110q-44 -64 -101 -178zM854 1427q0 40 24 73l45 56l6 8q45 42 96 43q25 0 52 -5q109 -41 130 -127l1 -7q1 -9 1 -18 q0 -20 -7 -46l-17 -34q-31 -45 -61 -71q-51 -38 -103 -39q-38 0 -70 15q-72 42 -92 113q-2 9 -3 17q-2 12 -2 22z" />
<glyph unicode="&#xe5;" horiz-adv-x="1222" d="M-25 130q0 15 2 31q41 185 352 591q312 408 423 408h4q8 -1 13 -1q11 0 25 3q29 2 35 2q52 0 129 -69q31 -29 57 -133q20 -77 36 -179q22 -153 36 -366q12 -169 12 -257q0 -99 -23 -110q-33 -21 -97 -21q-83 0 -113 40q-9 15 -16 38q-1 9 -3 19q-4 27 -4 60q0 21 1 29 q-57 14 -141 14q-123 0 -244 -38q-104 -31 -149 -66l-110 -146q-195 19 -222 123q-1 4 -2 10q-1 9 -1 18zM504 1483q0 112 80 199q85 98 194 98q14 0 28 -2q106 -13 195 -100q80 -78 100 -161q2 -9 4 -20q2 -14 2 -26q0 -46 -26 -87q-35 -45 -71 -92q-63 -84 -207 -84 q-15 0 -32 1q-80 6 -158 61q-82 59 -102 141q-2 9 -3 17l-1 6q-3 25 -3 49zM515 461l250 16q47 30 47 38v1q-1 2 -11 93q-5 46 -10 76q-5 31 -9 48v5q0 5 2 5q-14 6 -27 6q-63 0 -141 -110q-44 -64 -101 -178zM729 1493q0 -8 1 -13l1 -7q5 -23 57 -23h4q53 0 53 30q0 5 -1 9 q0 4 -2 8q-10 42 -51 46q-8 1 -14 1q-44 0 -48 -43v-8z" />
<glyph unicode="&#xe6;" horiz-adv-x="1868" d="M-25 131q0 15 2 30q41 186 352 592q312 408 423 408h4q8 -1 13 -1q12 0 25 2q28 3 35 3q52 0 129 -70q5 -4 7 -4q1 0 1 1q0 5 -7 19q18 54 63 69q81 25 268 57q212 36 313 36q71 0 85 -25q36 -49 51 -106q2 -10 3 -19q1 -12 1 -21q0 -41 -27 -61q-28 -21 -281 -49 q-214 -25 -214.5 -30t-15.5 -92l-8 -40h10q38 0 100 12q156 28 224 28q56 0 64 -15t53 -58t52 -72v-10q0 -29 -34 -44q-42 -18 -291 -96q-217 -66 -227 -66q-3 -4 -43 -207q322 153 449 153q33 0 51 -14q43 -30 81 -83t48 -93q1 -6 2 -10q1 -8 1 -12q0 -21 -16 -33 q-31 -26 -343 -130q-295 -100 -352 -100q-9 0 -15 2q-206 54 -226 135l-1 5q-1 8 -1 16q2 45 7 87q-30 5 -87 5q-123 0 -244 -39q-104 -30 -149 -65l-110 -146q-195 19 -222 122q-1 5 -2 12q-1 8 -1 17zM515 462l250 16q47 30 47 38q-1 3 -11 94q-5 46 -10 76q-5 31 -9 48v5 q0 5 2 5q-14 6 -27 6q-63 0 -141 -110q-44 -64 -101 -178z" />
<glyph unicode="&#xe7;" horiz-adv-x="1118" d="M-25 576q0 73 23 135q81 226 142 321q147 225 371 225q174 0 314 -82q134 -76 158 -172v-4q0 -66 -70 -119q-58 -46 -102 -46q-13 0 -33 7q-95 187 -232 187q-11 0 -23 -2q-73 -7 -171 -164q-83 -137 -125 -277q-3 -17 -3 -35q0 -23 4 -46q3 -17 7 -32q22 -92 99 -166 q48 -46 145 -46q99 0 165 45q49 34 49 76q0 5 -2 12q-1 6 -2 11q-1 6 -12 29l215 95q72 -77 95 -165q2 -10 4 -22q2 -15 2 -29q0 -25 -7 -44q-43 -119 -204 -199q-31 -15 -38 -17q22 -31 35 -83q2 -9 4 -20q3 -23 3 -46q0 -35 -7 -69q-19 -69 -79 -103q-79 -71 -219 -71 q-16 0 -33 1q-80 6 -158 61q-21 14 -25 45q-1 8 -1 18q0 9 1 18q5 60 51 84.5t101 24.5q20 -10 49 -10h4q52 0 52 30q0 5 -1 11q0 3 -1 5q-11 41 -45 46h-10q-58 0 -109 11q-132 28 -232 154q-90 113 -127 263q-10 38 -16 73q-6 42 -6 81z" />
<glyph unicode="&#xe8;" horiz-adv-x="1060" d="M-25 138q10 170 72 535q84 480 167 507q81 25 268 57q62 10 114 18q-176 20 -251 148q-7 16 -12 34q-3 9 -4 16q-2 12 -2 24q0 42 25 75q44 60 51 66q42 42 94 42q21 0 46 -7q115 -41 137 -131q3 -9 3 -14q2 -8 2 -18q0 -9 -2 -18q-3 -13 -8 -21q5 -27 49 -181q40 3 71 3 q71 0 85 -25q36 -49 51 -106q2 -10 3 -19q1 -12 1 -21q0 -41 -27 -61q-28 -21 -281 -49q-214 -25 -214.5 -30t-15.5 -92l-8 -40h10q38 0 100 12q156 28 224 28q56 0 64 -15t53 -58t52 -72v-10q0 -29 -34 -44q-42 -18 -291 -96q-217 -66 -227 -66q-3 -4 -43 -207 q322 153 449 153q33 0 51 -14q43 -30 81 -83t48 -93q1 -6 2 -10q1 -8 1 -12q0 -21 -16 -33q-31 -26 -343 -130q-295 -100 -352 -100q-9 0 -15 2q-206 54 -226 135l-1 5q-1 8 -1 16z" />
<glyph unicode="&#xe9;" horiz-adv-x="1060" d="M-25 138q10 170 72 535q84 480 167 507q81 25 268 57q212 36 313 36q71 0 85 -25q36 -49 51 -106q2 -10 3 -19q1 -12 1 -21q0 -41 -27 -61q-28 -21 -281 -49q-214 -25 -214.5 -30t-15.5 -92l-8 -40h10q38 0 100 12q156 28 224 28q56 0 64 -15t53 -58t52 -72v-10 q0 -29 -34 -44q-42 -18 -291 -96q-217 -66 -227 -66q-3 -4 -43 -207q322 153 449 153q33 0 51 -14q43 -30 81 -83t48 -93q1 -6 2 -10q1 -8 1 -12q0 -21 -16 -33q-31 -26 -343 -130q-295 -100 -352 -100q-9 0 -15 2q-206 54 -226 135l-1 5q-1 8 -1 16zM377 1254 q48 167 53 196q-6 9 -9 23q-1 9 -1 17q0 9 1 18q1 7 4 14q22 90 137 130q23 8 46 8q52 0 93 -41q7 -6 52 -67q25 -33 25 -75q0 -12 -2 -24q-1 -7 -4 -16q-5 -18 -12 -34q-89 -152 -321 -152q-16 0 -62 3z" />
<glyph unicode="&#xea;" horiz-adv-x="1060" d="M-25 138q10 170 72 535q84 480 167 507q81 25 268 57q110 19 165 25q-11 30 -39 77q-37 59 -41 61t-8 2q-61 0 -204 -182q-91 46 -140 106q-40 49 -50 96q-4 10 -7 27q242 288 329 288h5q8 -1 14 -1q12 0 26 2q27 2 33 2q52 0 127 -67q82 -74 104 -100q81 -92 105 -187 q5 -15 7 -37q-19 -42 -55 -76l2 -7q19 -7 25 -18q36 -49 51 -106q2 -10 3 -19q1 -12 1 -21q0 -41 -27 -61q-28 -21 -281 -49q-214 -25 -214.5 -30t-15.5 -92l-8 -40h10q38 0 100 12q156 28 224 28q56 0 64 -15t53 -58t52 -72v-10q0 -29 -34 -44q-42 -18 -291 -96 q-217 -66 -227 -66q-3 -4 -43 -207q322 153 449 153q33 0 51 -14q43 -30 81 -83t48 -93q1 -6 2 -10q1 -8 1 -12q0 -21 -16 -33q-31 -26 -343 -130q-295 -100 -352 -100q-9 0 -15 2q-206 54 -226 135l-1 5q-1 8 -1 16z" />
<glyph unicode="&#xeb;" horiz-adv-x="1044" d="M-25 138q10 170 72 535q84 480 167 507q81 25 268 57q170 29 269 35q-4 1 -8 3q-72 42 -92 113q-2 9 -3 17q-2 12 -2 22q0 40 24 73l45 56l6 8q45 42 96 43q25 0 52 -5q109 -41 130 -127l1 -7q1 -9 1 -18q0 -20 -7 -46l-17 -34q-31 -45 -61 -71q-31 -23 -63 -33 q20 -6 27 -18q36 -49 51 -106q2 -10 3 -19q1 -12 1 -21q0 -41 -27 -61q-28 -21 -281 -49q-214 -25 -214.5 -30t-15.5 -92l-8 -40h10q38 0 100 12q156 28 224 28q56 0 64 -15t53 -58t52 -72v-10q0 -29 -34 -44q-42 -18 -291 -96q-217 -66 -227 -66q-3 -4 -43 -207 q322 153 449 153q33 0 51 -14q43 -30 81 -83t48 -93q1 -6 2 -10q1 -8 1 -12q0 -21 -16 -33q-31 -26 -343 -130q-295 -100 -352 -100q-9 0 -15 2q-206 54 -226 135l-1 5q-1 8 -1 16zM215 1427q0 40 24 73l45 56l6 8q45 42 96 43q25 0 52 -5q109 -41 130 -127l1 -7q1 -9 1 -18 q0 -20 -8 -46l-16 -34q-31 -45 -61 -71q-51 -38 -103 -39q-38 0 -70 15q-72 42 -92 113q-2 9 -3 17q-2 12 -2 22z" />
<glyph unicode="&#xec;" horiz-adv-x="1010" d="M-25 50q0 37 3 67q9 134 77 139h83q39 0 53.5 16t71.5 262q56 242 73 381q-4 -5 -39 -5q-87 0 -290 -22q16 105 31 184q36 123 147 128q92 4 239 4q146 0 357 -4q63 -64 94 -164q4 -18 8 -34q1 -15 2 -27v-6q0 -36 -25 -49q-61 -30 -203 -30h-24q-137 -531 -141 -618h2 q49 0 205 27l7 -28q8 -38 9 -70v-30q-10 -122 -118 -132q-128 -12 -618 -62l-3 34q-1 21 -1 39zM367 1477q0 42 25 75q44 60 51 66q42 42 94 42q21 0 46 -7q115 -41 137 -131q3 -9 3 -14q2 -8 2 -18q0 -9 -2 -18q-3 -13 -8 -21q5 -28 53 -197q-46 -3 -62 -3q-232 0 -321 152 q-7 16 -12 34q-3 9 -4 16q-2 12 -2 24z" />
<glyph unicode="&#xed;" horiz-adv-x="1010" d="M-25 50q0 37 3 67q9 134 77 139h83q39 0 53.5 16t71.5 262q56 242 73 381q-4 -5 -39 -5q-87 0 -290 -22q16 105 31 184q36 123 147 128q92 4 239 4q146 0 357 -4q63 -64 94 -164q4 -18 8 -34q1 -15 2 -27v-6q0 -36 -25 -49q-61 -30 -203 -30h-24q-137 -531 -141 -618h2 q49 0 205 27l7 -28q8 -38 9 -70v-30q-10 -122 -118 -132q-128 -12 -618 -62l-3 34q-1 21 -1 39zM361 1254q48 167 53 196q-6 9 -9 23q-1 9 -1 17q0 9 1 18q1 7 4 14q22 90 137 130q23 8 46 8q52 0 93 -41q7 -6 52 -67q25 -33 25 -75q0 -12 -2 -24q-1 -7 -4 -16 q-5 -18 -12 -34q-89 -152 -321 -152q-16 0 -62 3z" />
<glyph unicode="&#xee;" horiz-adv-x="1004" d="M-25 50q0 37 3 67q9 134 77 139h83q39 0 53.5 16t71.5 262q56 242 73 381q-4 -5 -39 -5q-87 0 -290 -22q16 105 31 184q36 123 147 128q92 4 239 4q146 0 357 -4q63 -64 94 -164q4 -18 8 -34q1 -15 2 -27v-6q0 -36 -25 -49q-61 -30 -203 -30h-24q-137 -531 -141 -618h2 q49 0 205 27l7 -28q8 -38 9 -70v-30q-10 -122 -118 -132q-128 -12 -618 -62l-3 34q-1 21 -1 39zM158 1449q242 288 329 288h5q8 -1 14 -1q12 0 26 2q27 2 33 2q52 0 127 -67q82 -74 104 -100q81 -92 105 -187q5 -15 7 -37q-25 -56 -83 -97.5t-111 -41.5q-27 0 -59 16l-4 22 q-8 33 -43 91q-37 59 -41 61t-8 2q-61 0 -204 -182q-91 46 -140 106q-40 49 -50 96q-4 10 -7 27z" />
<glyph unicode="&#xef;" horiz-adv-x="997" d="M-25 50q0 37 3 67q9 134 77 139h83q39 0 53.5 16t71.5 262q56 242 73 381q-4 -5 -39 -5q-87 0 -290 -22q16 105 31 184q36 123 147 128q92 4 239 4q146 0 357 -4q63 -64 94 -164q4 -18 8 -34q1 -15 2 -27v-6q0 -36 -25 -49q-61 -30 -203 -30h-24q-137 -531 -141 -618h2 q49 0 205 27l7 -28q8 -38 9 -70v-30q-10 -122 -118 -132q-128 -12 -618 -62l-3 34q-1 21 -1 39zM151 1427q0 40 24 73l45 56l6 8q45 42 96 43q25 0 52 -5q109 -41 130 -127l1 -7q1 -9 1 -18q0 -20 -8 -46l-16 -34q-31 -45 -61 -71q-51 -38 -103 -39q-38 0 -70 15 q-72 42 -92 113q-2 9 -3 17q-2 12 -2 22zM582 1427q0 40 24 73l45 56l6 8q45 42 96 43q25 0 52 -5q109 -41 130 -127l1 -7q1 -9 1 -18q0 -20 -7 -46l-17 -34q-31 -45 -61 -71q-51 -38 -103 -39q-38 0 -70 15q-72 42 -92 113q-2 9 -3 17q-2 12 -2 22z" />
<glyph unicode="&#xf0;" horiz-adv-x="1385" d="M-25 777v7q0 11 8 22q14 12 201 32q34 221 45 221q24 62 217 110q129 35 181 35q9 0 15 -1q264 -27 401 -87q173 -78 207 -217q5 -12 7 -27q3 -21 3 -44q0 -26 -4 -53q-38 -260 -300 -534q-81 -85 -215 -142q-124 -52 -360 -108q-49 -11 -90 -11q-157 0 -192 146 q-5 15 -6 30q-4 17 -4 37q0 7 1 15q37 255 60 410h-16q-20 0 -80 55q-68 60 -78 98zM410 331l2 -10q4 -19 43 -19q15 0 35 4q48 7 251 178q109 92 189 207q65 96 65 137q0 2 -1 3l-1 7q-28 81 -102 113q-43 17 -86 17q-12 0 -23 -2q-164 -16 -172 -18q-70 -17 -103 -79 q72 5 136 5q85 0 93.5 -14.5t52.5 -58t52 -71.5v-10q0 -29 -35 -43q-52 -27 -337 -45l-14 -1h1q-17 -108 -46 -300z" />
<glyph unicode="&#xf1;" horiz-adv-x="1296" d="M-25 140q39 248 78 493q93 498 182 510q9 1 40.5 20t57.5 19q32 0 58 -26q63 -57 186 -303q101 -195 181 -386q11 78 59 353q67 383 109 389q17 2 35 2q43 0 97 -14q100 -26 113 -78v-6q0 -52 -120 -518q-112 -429 -112 -485q4 -3 4 -16v-4q0 -19 -25 -36 q-25 -19 -66 -19q-97 0 -169 110q-16 24 -173 323q-114 216 -132 216q-16 -1 -25 -26q-8 -24 -14 -51q-6 -17 -46 -290q-34 -240 -34 -290v-13q0 -34 -65 -34q-67 0 -126 34q-73 43 -90 116zM381 1483q16 68 65 126.5t113 69.5q5 2 13 2q34 0 101 -39q76 -43 103.5 -76.5 t37.5 -33.5q25 0 51 137q38 13 63 13q45 0 87.5 -28.5t87.5 -58.5q2 -17 2 -29q0 -33 -11 -93q-27 -120 -92 -169q-63 -44 -120 -44q-62 0 -129.5 51.5t-83.5 51.5q-34 0 -88 -106q-96 47 -144 107q-39 50 -52 97q-1 9 -4 22z" />
<glyph unicode="&#xf2;" horiz-adv-x="1347" d="M-25 483q0 121 40 241q71 213 233 347q174 143 395 143q191 0 355 -118t212 -306q4 -19 7 -39q5 -35 5 -73q0 -197 -145 -473q-58 -109 -248 -173q-156 -52 -320 -52q-182 0 -308 64q-160 82 -203 250q-9 39 -15 78q-8 56 -8 111zM263 512q0 -37 6 -77q4 -26 11 -54 q20 -78 106 -120q71 -35 160 -35q153 0 301 206q119 164 119 298q0 23 -3 43q-2 14 -5 26q-19 77 -113 123q-78 38 -165 38q-211 0 -331 -177q-86 -126 -86 -271zM535 1477q0 42 25 75q44 60 51 66q42 42 94 42q21 0 46 -7q115 -41 137 -131q3 -9 3 -14q2 -8 2 -18 q0 -9 -2 -18q-3 -13 -8 -21q5 -28 53 -197q-46 -3 -62 -3q-232 0 -321 152q-7 16 -12 34q-3 9 -4 16q-2 12 -2 24z" />
<glyph unicode="&#xf3;" horiz-adv-x="1347" d="M-25 483q0 121 40 241q71 213 233 347q174 143 395 143q191 0 355 -118t212 -306q4 -19 7 -39q5 -35 5 -73q0 -197 -145 -473q-58 -109 -248 -173q-156 -52 -320 -52q-182 0 -308 64q-160 82 -203 250q-9 39 -15 78q-8 56 -8 111zM263 512q0 -37 6 -77q4 -26 11 -54 q20 -78 106 -120q71 -35 160 -35q153 0 301 206q119 164 119 298q0 23 -3 43q-2 14 -5 26q-19 77 -113 123q-78 38 -165 38q-211 0 -331 -177q-86 -126 -86 -271zM529 1254q48 167 53 196q-6 9 -9 23q-1 9 -1 17q0 9 1 18q1 7 4 14q22 90 137 130q23 8 46 8q52 0 93 -41 q7 -6 52 -67q25 -33 25 -75q0 -12 -2 -24q-1 -7 -4 -16q-5 -18 -12 -34q-89 -152 -321 -152q-16 0 -62 3z" />
<glyph unicode="&#xf4;" horiz-adv-x="1347" d="M-25 483q0 121 40 241q71 213 233 347q174 143 395 143q191 0 355 -118t212 -306q4 -19 7 -39q5 -35 5 -73q0 -197 -145 -473q-58 -109 -248 -173q-156 -52 -320 -52q-182 0 -308 64q-160 82 -203 250q-9 39 -15 78q-8 56 -8 111zM263 512q0 -37 6 -77q4 -26 11 -54 q20 -78 106 -120q71 -35 160 -35q153 0 301 206q119 164 119 298q0 23 -3 43q-2 14 -5 26q-19 77 -113 123q-78 38 -165 38q-211 0 -331 -177q-86 -126 -86 -271zM374 1449q242 288 329 288h5q8 -1 14 -1q12 0 26 2q27 2 33 2q52 0 127 -67q82 -74 104 -100q81 -92 105 -187 q5 -15 7 -37q-25 -56 -83 -97.5t-111 -41.5q-27 0 -59 16l-4 22q-8 33 -43 91q-37 59 -41 61t-8 2q-61 0 -204 -182q-91 46 -140 106q-40 49 -50 96q-4 10 -7 27z" />
<glyph unicode="&#xf5;" horiz-adv-x="1347" d="M-25 483q0 121 40 241q71 213 233 347q174 143 395 143q191 0 355 -118t212 -306q4 -19 7 -39q5 -35 5 -73q0 -197 -145 -473q-58 -109 -248 -173q-156 -52 -320 -52q-182 0 -308 64q-160 82 -203 250q-9 39 -15 78q-8 56 -8 111zM263 512q0 -37 6 -77q4 -26 11 -54 q20 -78 106 -120q71 -35 160 -35q153 0 301 206q119 164 119 298q0 23 -3 43q-2 14 -5 26q-19 77 -113 123q-78 38 -165 38q-211 0 -331 -177q-86 -126 -86 -271zM381 1483q16 68 65 126.5t113 69.5q5 2 13 2q34 0 101 -39q76 -43 103.5 -76.5t37.5 -33.5q25 0 51 137 q38 13 63 13q45 0 87.5 -28.5t87.5 -58.5q2 -17 2 -29q0 -33 -11 -93q-27 -120 -92 -169q-63 -44 -120 -44q-62 0 -129.5 51.5t-83.5 51.5q-34 0 -88 -106q-96 47 -144 107q-39 50 -52 97q-1 9 -4 22z" />
<glyph unicode="&#xf6;" horiz-adv-x="1347" d="M-25 483q0 121 40 241q71 213 233 347q174 143 395 143q191 0 355 -118t212 -306q4 -19 7 -39q5 -35 5 -73q0 -197 -145 -473q-58 -109 -248 -173q-156 -52 -320 -52q-182 0 -308 64q-160 82 -203 250q-9 39 -15 78q-8 56 -8 111zM263 512q0 -37 6 -77q4 -26 11 -54 q20 -78 106 -120q71 -35 160 -35q153 0 301 206q119 164 119 298q0 23 -3 43q-2 14 -5 26q-19 77 -113 123q-78 38 -165 38q-211 0 -331 -177q-86 -126 -86 -271zM343 1427q0 40 24 73l45 56l6 8q45 42 96 43q25 0 52 -5q109 -41 130 -127l1 -7q1 -9 1 -18q0 -20 -8 -46 l-16 -34q-31 -45 -61 -71q-51 -38 -103 -39q-38 0 -70 15q-72 42 -92 113q-2 9 -3 17q-2 12 -2 22zM774 1427q0 40 24 73l45 56l6 8q45 42 96 43q25 0 52 -5q109 -41 130 -127l1 -7q1 -9 1 -18q0 -20 -7 -46l-17 -34q-31 -45 -61 -71q-51 -38 -103 -39q-38 0 -70 15 q-72 42 -92 113q-2 9 -3 17q-2 12 -2 22z" />
<glyph unicode="&#xf7;" horiz-adv-x="1170" d="M-25 848v9q0 15 9 26q14 14 334 47q338 35 485 35q101 0 112 -16.5t67 -71.5t63 -88v-12q0 -32 -39 -50q-67 -31 -419 -54q-243 -16 -354 -16h-44q-1 -1 -22 -1q-23 0 -95 66q-84 75 -95 121zM244 1203q0 49 29 88l56 71l7 10q53 50 115 51q31 0 63 -6q133 -50 159 -155 l1 -9q1 -10 1 -21q0 -25 -9 -57l-20 -42q-38 -55 -76 -87q-61 -46 -124 -47q-45 0 -82 18q-90 51 -114 139q-2 10 -4 19q-2 15 -2 28zM328 384q0 49 29 88l56 71l7 9q52 51 115 52q31 0 63 -6q133 -50 159 -155l1 -9q1 -10 1 -21q0 -25 -9 -57l-20 -42q-38 -55 -76 -87 q-61 -46 -124 -47q-45 0 -83 18q-89 51 -112 138q-4 11 -5 21q-2 14 -2 27z" />
<glyph unicode="&#xf8;" horiz-adv-x="1351" d="M-21 489q0 120 40 241q71 213 234 346q173 144 394 144q119 0 216 -41q21 10 79 10q116 0 134 -75l1 -6q1 -8 1 -14q0 -18 -7 -39q-2 -8 -2 -9q105 -97 145 -250q4 -19 7 -40q5 -34 5 -72q0 -198 -145 -474q-58 -108 -248 -172q-156 -52 -320 -52q-149 0 -240 34 q-3 -5 -8 -19q-6 -23 -42 -23q-39 0 -99 42.5t-70 82.5l-1 3q-2 6 -2 12q0 11 4 19q4 9 13 24q-45 53 -66 139q-9 39 -15 77q-8 56 -8 112zM267 454q189 258 195 270q42 29 214 245q-202 -3 -323 -180q-86 -127 -86 -271v-64zM423 236q50 -4 127 -4q153 0 301 205 q119 165 119 299q0 22 -3 43q-2 13 -6 26q-9 43 -21 54q-40 -51 -130 -152q-234 -266 -387 -471z" />
<glyph unicode="&#xf9;" horiz-adv-x="1322" d="M-25 308q0 80 68 389q20 97 101 449q22 89 107 89q51 0 108 -33q49 -33 58 -62v-6q0 -15 -13 -22q-17 -9 -86 -304q-55 -234 -55 -358q0 -33 4 -57q3 -12 5 -23q12 -48 78 -48q97 0 228 54q114 46 114 68l-1 4v6q0 54 99 355q100 311 134 373q18 31 64 31q54 0 127 -46 t80 -78l2 -5v-4q0 -20 -23 -28q-62 -24 -141 -449q-54 -298 -54 -441q0 -39 4 -66q1 -10 4 -18l3 -26q-77 -17 -132 -17q-136 0 -162 79q-2 7 -21 7q-78 0 -360 -130q-22 -11 -48 -11q-82 0 -170.5 86.5t-113.5 186.5q-4 14 -6 27q-1 8 -1 15q-1 5 -1 13zM487 1477 q0 42 25 75q44 60 51 66q42 42 94 42q21 0 46 -7q115 -41 137 -131q3 -9 3 -14q2 -8 2 -18q0 -9 -2 -18q-3 -13 -8 -21q5 -28 53 -197q-46 -3 -62 -3q-232 0 -321 152q-7 16 -12 34q-3 9 -4 16q-2 12 -2 24z" />
<glyph unicode="&#xfa;" horiz-adv-x="1322" d="M-25 308q0 80 68 389q20 97 101 449q22 89 107 89q51 0 108 -33q49 -33 58 -62v-6q0 -15 -13 -22q-17 -9 -86 -304q-55 -234 -55 -358q0 -33 4 -57q3 -12 5 -23q12 -48 78 -48q97 0 228 54q114 46 114 68l-1 4v6q0 54 99 355q100 311 134 373q18 31 64 31q54 0 127 -46 t80 -78l2 -5v-4q0 -20 -23 -28q-62 -24 -141 -449q-54 -298 -54 -441q0 -39 4 -66q1 -10 4 -18l3 -26q-77 -17 -132 -17q-136 0 -162 79q-2 7 -21 7q-78 0 -360 -130q-22 -11 -48 -11q-82 0 -170.5 86.5t-113.5 186.5q-4 14 -6 27q-1 8 -1 15q-1 5 -1 13zM537 1254 q48 167 53 196q-6 9 -9 23q-1 9 -1 17q0 9 1 18q1 7 4 14q22 90 137 130q23 8 46 8q52 0 93 -41q7 -6 52 -67q25 -33 25 -75q0 -12 -2 -24q-1 -7 -4 -16q-5 -18 -12 -34q-89 -152 -321 -152q-16 0 -62 3z" />
<glyph unicode="&#xfb;" horiz-adv-x="1322" d="M-25 308q0 80 68 389q20 97 101 449q22 89 107 89q51 0 108 -33q49 -33 58 -62v-6q0 -15 -13 -22q-17 -9 -86 -304q-55 -234 -55 -358q0 -33 4 -57q3 -12 5 -23q12 -48 78 -48q97 0 228 54q114 46 114 68l-1 4v6q0 54 99 355q100 311 134 373q18 31 64 31q54 0 127 -46 t80 -78l2 -5v-4q0 -20 -23 -28q-62 -24 -141 -449q-54 -298 -54 -441q0 -39 4 -66q1 -10 4 -18l3 -26q-77 -17 -132 -17q-136 0 -162 79q-2 7 -21 7q-78 0 -360 -130q-22 -11 -48 -11q-82 0 -170.5 86.5t-113.5 186.5q-4 14 -6 27q-1 8 -1 15q-1 5 -1 13zM318 1449 q242 288 329 288h5q8 -1 14 -1q12 0 26 2q27 2 33 2q52 0 127 -67q82 -74 104 -100q81 -92 105 -187q5 -15 7 -37q-25 -56 -83 -97.5t-111 -41.5q-27 0 -59 16l-4 22q-8 33 -43 91q-37 59 -41 61t-8 2q-61 0 -204 -182q-91 46 -140 106q-40 49 -50 96q-4 10 -7 27z" />
<glyph unicode="&#xfc;" horiz-adv-x="1322" d="M-25 308q0 80 68 389q20 97 101 449q22 89 107 89q51 0 108 -33q49 -33 58 -62v-6q0 -15 -13 -22q-17 -9 -86 -304q-55 -234 -55 -358q0 -33 4 -57q3 -12 5 -23q12 -48 78 -48q97 0 228 54q114 46 114 68l-1 4v6q0 54 99 355q100 311 134 373q18 31 64 31q54 0 127 -46 t80 -78l2 -5v-4q0 -20 -23 -28q-62 -24 -141 -449q-54 -298 -54 -441q0 -39 4 -66q1 -10 4 -18l3 -26q-77 -17 -132 -17q-136 0 -162 79q-2 7 -21 7q-78 0 -360 -130q-22 -11 -48 -11q-82 0 -170.5 86.5t-113.5 186.5q-4 14 -6 27q-1 8 -1 15q-1 5 -1 13zM311 1427 q0 40 24 73l45 56l6 8q45 42 96 43q25 0 52 -5q109 -41 130 -127l1 -7q1 -9 1 -18q0 -20 -8 -46l-16 -34q-31 -45 -61 -71q-51 -38 -103 -39q-38 0 -70 15q-72 42 -92 113q-2 9 -3 17q-2 12 -2 22zM742 1427q0 40 24 73l45 56l6 8q45 42 96 43q25 0 52 -5q109 -41 130 -127 l1 -7q1 -9 1 -18q0 -20 -7 -46l-17 -34q-31 -45 -61 -71q-51 -38 -103 -39q-38 0 -70 15q-72 42 -92 113q-2 9 -3 17q-2 12 -2 22z" />
<glyph unicode="&#xfd;" horiz-adv-x="1131" d="M-25 1054q0 42 28 76q40 40 93 40q57 0 72 -44q12 -37 146 -198q99 -120 130 -151q41 110 189 307q131 176 222 176q75 0 133 -91q10 -14 14 -30q2 -5 3 -10q1 -8 1 -15q0 -44 -34 -93q-43 -60 -117 -107q-103 -64 -297 -417q-173 -317 -235 -502q-9 -32 -45 -32 q-47 0 -112 67t-75 107l-2 5v5q0 23 27 29q19 3 100 197q36 85 81 202q4 13 4 23q0 3 -1 7v1q-38 23 -158 165q-141 166 -163 247q-2 10 -2 17q-2 10 -2 19zM377 1254q48 167 53 196q-6 9 -9 23q-1 9 -1 17q0 9 1 18q1 7 4 14q22 90 137 130q23 8 46 8q52 0 93 -41 q7 -6 52 -67q25 -33 25 -75q0 -12 -2 -24q-1 -7 -4 -16q-5 -18 -12 -34q-89 -152 -321 -152q-16 0 -62 3z" />
<glyph unicode="&#xfe;" horiz-adv-x="1191" d="M-20 94q13 59 43.5 251t67.5 364q122 507 168 519q57 14 102 14q107 0 125 -73l-25 -81q0 -1 53 -1q149 0 279 -46q181 -64 257 -195q7 -14 11 -28q3 -7 3 -13q2 -8 2 -19q0 -88 -115 -212q-123 -135 -314 -242q-203 -114 -368 -130q-4 -1 -21 -2q-12 -65 -12 -98 q-25 -42 -49 -80q-26 -42 -78 -42q-12 0 -22 3q-80 11 -107 111zM323 482q46 0 145.5 37t140.5 71q62 51 122 114q74 78 74 107v5q-21 30 -178 30q-171 0 -219 -58q-9 -14 -52 -153q-33 -119 -33 -153z" />
<glyph unicode="&#xff;" horiz-adv-x="1131" d="M-25 1054q0 42 28 76q40 40 93 40q57 0 72 -44q12 -37 146 -198q99 -120 130 -151q41 110 189 307q131 176 222 176q75 0 133 -91q10 -14 14 -30q2 -5 3 -10q1 -8 1 -15q0 -44 -34 -93q-43 -60 -117 -107q-103 -64 -297 -417q-173 -317 -235 -502q-9 -32 -45 -32 q-47 0 -112 67t-75 107l-2 5v5q0 23 27 29q19 3 100 197q36 85 81 202q4 13 4 23q0 3 -1 7v1q-38 23 -158 165q-141 166 -163 247q-2 10 -2 17q-2 10 -2 19zM103 1427q0 40 24 73l45 56l6 8q45 42 96 43q25 0 52 -5q109 -41 130 -127l1 -7q1 -9 1 -18q0 -20 -8 -46l-16 -34 q-31 -45 -61 -71q-51 -38 -103 -39q-38 0 -70 15q-72 42 -92 113q-2 9 -3 17q-2 12 -2 22zM534 1427q0 40 24 73l45 56l6 8q45 42 96 43q25 0 52 -5q109 -41 130 -127l1 -7q1 -9 1 -18q0 -20 -7 -46l-17 -34q-31 -45 -61 -71q-51 -38 -103 -39q-38 0 -70 15q-72 42 -92 113 q-2 9 -3 17q-2 12 -2 22z" />
<glyph unicode="&#x152;" horiz-adv-x="2401" d="M-25 604q0 150 50 300q88 265 290 431q215 178 489 178q236 0 441 -146l21 -15l-1 1q34 101 85 117q101 31 334 71q264 45 390 45q85 0 101 -28q44 -61 61 -132q4 -12 5 -23q2 -14 2 -26q0 -47 -34 -73q-32 -24 -346 -59q-273 -32 -273.5 -40t-19.5 -117l-17 -83l15 26 q49 0 137 16q195 35 279 35q66 0 75.5 -17.5t65 -71t64.5 -87.5v-12q0 -33 -40 -51q-52 -22 -362 -120q-281 -86 -289 -86q-3 -4 -55 -269q413 196 569 196q39 0 60 -16q53 -38 100 -103.5t58 -113.5q3 -8 4 -14q1 -8 1 -13q0 -24 -17 -38q-39 -32 -429 -163 q-366 -123 -436 -123q-11 0 -17 2q-171 45 -224 92q-26 -12 -78 -29q-194 -65 -398 -65q-226 0 -382 79q-197 101 -250 310q-12 48 -19 96q-10 70 -10 139zM322 640q0 -47 8 -97q5 -33 14 -68q25 -100 135 -153q91 -44 203 -44q195 0 382 259q24 32 42 61q16 108 39 242 q20 117 39 207q-32 64 -125 110q-99 48 -209 48q-267 0 -419 -224q-109 -159 -109 -341z" />
<glyph unicode="&#x153;" horiz-adv-x="2401" d="M-25 483q0 121 40 241q71 213 233 347q174 143 395 143q191 0 355 -118q14 -10 15 -10l-4 3q26 77 69 91q81 25 268 57q212 36 313 36q71 0 85 -25q36 -49 51 -106q2 -10 3 -19q1 -12 1 -21q0 -41 -27 -61q-28 -21 -281 -49q-214 -25 -214.5 -30t-15.5 -92l2 -40 q38 0 100 12q156 28 224 28q56 0 64 -15t53 -58t52 -72v-10q0 -29 -34 -44q-42 -18 -291 -96q-217 -66 -227 -66q-3 -4 -43 -207q322 153 449 153q33 0 51 -14q43 -30 81 -83t48 -93q1 -6 2 -10q1 -8 1 -12q0 -21 -16 -33q-31 -26 -343 -130q-295 -100 -352 -100q-9 0 -15 2 q-138 37 -179 72q-17 -8 -59 -22q-156 -52 -320 -52q-182 0 -308 64q-160 82 -203 250q-9 39 -15 78q-8 56 -8 111zM263 512q0 -37 6 -77q4 -26 11 -54q20 -78 106 -120q71 -35 160 -35q153 0 301 206q19 25 33 48q13 85 31 193q16 94 31 165q-24 48 -97 84q-78 38 -165 38 q-211 0 -331 -177q-86 -126 -86 -271z" />
<glyph unicode="&#x2c6;" horiz-adv-x="1024" d="M-26 1811q299 355 405 355h4q10 -1 20 -1q15 0 33 2q33 3 40 3q63 0 157 -85q98 -89 127 -121q102 -115 130 -232q6 -19 9 -45q-30 -68 -101.5 -119t-135.5 -51q-32 0 -67 20l-5 24q-10 42 -55 115q-46 75 -52.5 78t-13.5 3q-80 0 -257 -224q-108 53 -168 127 q-49 61 -62 119q-5 12 -8 32z" />
<glyph unicode="&#x2dc;" horiz-adv-x="1000" d="M-17 1854q19 83 79.5 154.5t138.5 85.5q6 2 14 2q41 0 125 -49q92 -52 127 -94.5t50 -42.5q37 0 71 173q42 14 72 14q54 0 106 -34.5t107 -71.5q2 -19 2 -33q0 -42 -14 -116q-33 -148 -113 -208q-76 -54 -146 -54q-74 0 -158.5 64.5t-107.5 64.5q-46 0 -113 -130 q-112 55 -172 129q-48 61 -64 120q-2 12 -4 26z" />
<glyph unicode="&#x2000;" horiz-adv-x="1110" />
<glyph unicode="&#x2001;" horiz-adv-x="2220" />
<glyph unicode="&#x2002;" horiz-adv-x="1110" />
<glyph unicode="&#x2003;" horiz-adv-x="2220" />
<glyph unicode="&#x2004;" horiz-adv-x="740" />
<glyph unicode="&#x2005;" horiz-adv-x="555" />
<glyph unicode="&#x2006;" horiz-adv-x="370" />
<glyph unicode="&#x2007;" horiz-adv-x="370" />
<glyph unicode="&#x2008;" horiz-adv-x="277" />
<glyph unicode="&#x2009;" horiz-adv-x="444" />
<glyph unicode="&#x200a;" horiz-adv-x="123" />
<glyph unicode="&#x2010;" horiz-adv-x="1170" d="M-25 853v9q0 15 9 26q14 14 334 47q338 35 485 35q101 0 112 -16.5t67 -71.5t63 -88v-12q0 -32 -39 -50q-67 -31 -419 -54q-243 -16 -354 -16h-44q-1 -1 -22 -1q-23 0 -95 66q-84 75 -95 121z" />
<glyph unicode="&#x2011;" horiz-adv-x="1170" d="M-25 853v9q0 15 9 26q14 14 334 47q338 35 485 35q101 0 112 -16.5t67 -71.5t63 -88v-12q0 -32 -39 -50q-67 -31 -419 -54q-243 -16 -354 -16h-44q-1 -1 -22 -1q-23 0 -95 66q-84 75 -95 121z" />
<glyph unicode="&#x2012;" horiz-adv-x="1170" d="M-25 853v9q0 15 9 26q14 14 334 47q338 35 485 35q101 0 112 -16.5t67 -71.5t63 -88v-12q0 -32 -39 -50q-67 -31 -419 -54q-243 -16 -354 -16h-44q-1 -1 -22 -1q-23 0 -95 66q-84 75 -95 121z" />
<glyph unicode="&#x2013;" horiz-adv-x="1170" d="M-25 853v9q0 15 9 26q14 14 334 47q338 35 485 35q101 0 112 -16.5t67 -71.5t63 -88v-12q0 -32 -39 -50q-67 -31 -419 -54q-243 -16 -354 -16h-44q-1 -1 -22 -1q-23 0 -95 66q-84 75 -95 121z" />
<glyph unicode="&#x2014;" horiz-adv-x="1170" d="M-25 853v9q0 15 9 26q14 14 334 47q338 35 485 35q101 0 112 -16.5t67 -71.5t63 -88v-12q0 -32 -39 -50q-67 -31 -419 -54q-243 -16 -354 -16h-44q-1 -1 -22 -1q-23 0 -95 66q-84 75 -95 121z" />
<glyph unicode="&#x2018;" horiz-adv-x="532" d="M-25 1119q0 27 11 58q17 52 64 125q39 93 107 132q23 6 44 6q52 0 121 -41q-54 -70 -56 -109l1 -10q13 -50 131 -50q6 -28 7 -37q2 -16 2 -31q0 -51 -27 -99l-57 -72l-7 -10q-53 -50 -115 -51q-31 0 -64 6q-132 50 -157 153l-4 12q-1 9 -1 18z" />
<glyph unicode="&#x2019;" horiz-adv-x="532" d="M-25 1207q0 51 27 100l57 72l6 9q54 51 117 52q31 0 64 -6q132 -50 158 -155q1 -4 2 -11q1 -9 1 -18q0 -27 -11 -57q-16 -52 -63 -125q-39 -93 -107 -132q-23 -6 -44 -6q-52 0 -121 41q54 70 56 108l-2 11q-12 50 -130 50l-8 36q-2 16 -2 31z" />
<glyph unicode="&#x201a;" horiz-adv-x="532" d="M-25 88q0 51 27 99l57 72l7 10q53 50 116 51q31 0 63 -6q132 -50 157 -153l4 -12q1 -9 1 -18q0 -27 -11 -58q-17 -52 -64 -125q-39 -93 -107 -132q-23 -6 -44 -6q-52 0 -121 41q54 70 57 108l-2 11q-12 50 -129 50q-8 27 -9 37q-2 16 -2 31z" />
<glyph unicode="&#x201c;" horiz-adv-x="982" d="M-25 1124q0 25 9 56q18 52 65 125q38 93 107 132q23 6 44 6q52 0 120 -41q-53 -70 -55 -109v-9q14 -51 132 -51q6 -27 7 -37q2 -15 2 -31q0 -50 -28 -99l-56 -73l-8 -9q-52 -50 -114 -51q-31 0 -64 6q-132 50 -159 155l-1 9q-1 10 -1 21zM425 1120q0 27 11 57 q16 52 63 125q39 93 107 132q23 6 44 6q52 0 121 -41q-54 -70 -56 -108l2 -11q12 -50 130 -50l8 -36q2 -16 2 -31q0 -51 -27 -100l-57 -72l-6 -9q-54 -51 -117 -52q-31 0 -64 6q-132 50 -158 155q-1 4 -2 11q-1 9 -1 18z" />
<glyph unicode="&#x201d;" horiz-adv-x="981" d="M-25 1210q0 51 27 100l57 72l6 9q54 51 117 52q31 0 64 -6q132 -50 158 -155q1 -4 2 -11q1 -9 1 -18q0 -27 -11 -57q-16 -52 -63 -125q-39 -93 -107 -132q-23 -6 -44 -6q-52 0 -121 41q54 70 56 108l-2 11q-12 50 -130 50l-8 36q-2 16 -2 31zM425 1208q0 50 28 99l56 73 l8 9q52 50 114 51q31 0 64 -6q132 -50 159 -155l1 -9q1 -10 1 -21q0 -25 -9 -56q-18 -52 -65 -125q-38 -93 -107 -132q-23 -6 -44 -6q-52 0 -120 41q53 70 55 113v5q-14 51 -132 51q-6 27 -7 37q-2 15 -2 31z" />
<glyph unicode="&#x201e;" horiz-adv-x="981" d="M-32 60q0 51 27 100l58 72l7 9q52 51 115 52q31 0 64 -6q132 -50 158 -155q1 -4 2 -11q1 -9 1 -18q0 -27 -11 -57q-16 -52 -63 -125q-39 -93 -107 -132q-23 -6 -44 -6q-52 0 -121 41q54 70 56 108l-2 11q-12 50 -130 50l-8 36q-2 16 -2 31zM425 58q0 50 28 99l56 73l8 9 q52 50 115 51q31 0 63 -6q132 -50 159 -155l1 -9q1 -10 1 -21q0 -25 -9 -56q-18 -52 -65 -125q-38 -93 -107 -132q-23 -6 -44 -6q-52 0 -120 41q53 70 56 109q0 2 -1 5v4q-13 51 -129 51q-9 26 -10 37q-2 15 -2 31z" />
<glyph unicode="&#x2022;" horiz-adv-x="605" d="M-164 718v32q1 24 6 46q16 80 76 143q91 94 226 94q133 0 230.5 -93t103.5 -221q1 -8 1 -17t-1 -17q-1 -23 -5 -44q-16 -81 -76 -144q-92 -96 -226 -96q-135 0 -231.5 93.5t-103.5 223.5z" />
<glyph unicode="&#x2026;" horiz-adv-x="1354" d="M-25 185q0 49 29 88l56 71l7 9q52 51 115 52q31 0 63 -6q129 -49 157 -149q6 11 14 22l56 71l7 10q53 50 115 51q31 0 63 -6q128 -48 157 -147q5 11 13 21l56 71l7 10q53 50 115 51q31 0 63 -6q133 -50 159 -155l1 -9q1 -10 1 -21q0 -25 -9 -57l-20 -42q-38 -55 -76 -87 q-61 -46 -124 -47q-45 0 -82 18q-90 51 -114 139q-1 3 -1 6l-14 -29q-38 -55 -76 -87q-61 -46 -124 -47q-45 0 -82 18q-90 51 -114 139l-2 8l-14 -30q-38 -55 -76 -87q-61 -46 -124 -47q-45 0 -83 18q-89 51 -112 138q-4 11 -5 21q-2 14 -2 27z" />
<glyph unicode="&#x202f;" horiz-adv-x="444" />
<glyph unicode="&#x2039;" horiz-adv-x="1229" d="M-25 786l1 11q2 17 14 27q18 17 397 169q403 161 483 161q22 0 36 -14q6 -12 55.5 -66.5t53.5 -85.5l1 -6l-1 -9q-3 -33 -42 -49q-132 -62 -345 -147q16 -1 185 -54q168 -53 176 -69t60 -78q53 -59 55 -89l1 -6l-1 -6q-3 -45 -91 -45q-105 0 -434 84t-410 84 q-2 -3 -19 -3q-24 0 -90 67q-78 75 -85 124z" />
<glyph unicode="&#x203a;" horiz-adv-x="1178" d="M-25 1071v12q2 17 14 30q7 7 22 7q41 0 456 -98q458 -108 477 -148q5 -9 55.5 -64t52.5 -86l1 -5l-1 -9q-3 -33 -43 -49q-658 -291 -776 -291h18q0 -3 -27 -3q-24 0 -90 67q-78 75 -85 122l-1 9l1 6q2 11 9 22q14 12 162 71q172 70 233 87q-99 30 -266 73v25 q0 -21 -26 -21q-24 0 -97 90q-80 100 -89 153z" />
<glyph unicode="&#x205f;" horiz-adv-x="555" />
<glyph unicode="&#x20ac;" horiz-adv-x="1400" d="M-25 997v7q0 14 9 25q16 14 285 42q39 119 98 209q182 278 460 278q246 -10 434 -119q-54 -187 -157 -187q-182 28 -266 28q-93 -9 -195 -175q84 6 161 6q101 0 111.5 -16.5t65.5 -71t64 -87.5v-12q0 -33 -40 -50q-64 -32 -419 -55q-46 -3 -67 -4q-1 -6 -3 -30 q-3 -22 -3 -44v-6q211 20 327 20q102 0 111.5 -17.5t65 -71t63.5 -85.5l2 -5v-8q0 -34 -40 -51q-66 -31 -420 -54q-39 -3 -43 -3q22 -50 74 -101q44 -57 235 -57q126 0 226 68q124 -89 163 -290q-201 -100 -407 -100q-70 0 -183 12q-164 36 -288 191q-85 107 -127 264h-42 q0 -1 -27 -1q-23 0 -95 65q-84 76 -96 123l-1 8v4q0 16 10 26q11 13 196 33q-4 31 -4 80v18h-18q0 -1 -27 -1q-23 0 -96 66q-84 75 -96 122z" />
<glyph unicode="&#x2122;" horiz-adv-x="1611" d="M-25 1358v21q134 23 248 43q225 36 321 36q19 0 34 -1q44 -7 66 -93q5 -15 7 -27q17 39 27 52q25 34 98 34q30 0 71 -6q48 -8 63 -68q1 -7 4 -17q2 -18 2 -37l9 -118q15 -63 28 -110q167 267 365 419q163 -70 168 -97q0 -20 -25 -25q-5 0 -39 -294q-31 -260 -31 -328v-14 q0 -34 -43 -34q-54 0 -159 63q-15 8 -20 30l-2 12q-2 18 -2 44q0 76 23 218q-116 -137 -126 -172q-27 -98 -43 -124q-26 -41 -84 -41q-12 0 -26 1q-88 8 -107 85l-2 16q-5 32 -6 90q-7 89 -14 136l-2 15q-2 7 -3 13q-6 26 -29 26q1 0 1 -2q0 -16 -36 -163q-51 -213 -56 -225 q-11 -34 -47 -34t-70 38t-44 83q-3 8 -4 17q-2 12 -2 24q3 55 85 287q32 90 55 149q-30 -11 -111 -27q-111 -23 -111 -24q-40 -46 -75 -249q-16 -113 -33 -229q-45 -71 -91 -71q-49 0 -89 71q-1 3 -4 9v9q-1 9 -1 23q0 65 33 227l60 216q-27 -2 -55 -5q-62 -8 -72 -16 q-11 -8 -22 -8q-44 0 -78 130q-3 14 -4 22z" />
<glyph unicode="&#x25fc;" horiz-adv-x="1175" d="M0 0v1175h1175v-1175h-1175z" />
</font>
</defs>
</svg>
